<svg version="1.1" xmlns="http://www.w3.org/2000/svg" xmlns:xlink="http://www.w3.org/1999/xlink" width="624" height="621"><defs><clipPath id="qzZyWWzOLqcm"><path fill="none" stroke="none" d=" M 0 0 L 624 0 L 624 621 L 0 621 L 0 0 Z"/></clipPath></defs><g transform="scale(1,1)" clip-path="url(#qzZyWWzOLqcm)"><g><rect fill="rgb(255,255,255)" stroke="none" x="0" y="0" width="624" height="621" fill-opacity="1"/><path fill="none" stroke="rgb(0,0,0)" paint-order="fill stroke markers" d=" M 44.5 2.5 L 44.5 621.5" stroke-opacity="1" stroke-miterlimit="10"/><path fill="none" stroke="rgb(0,0,0)" paint-order="fill stroke markers" d=" M 44.5 1.5 L 40.5 5.5" stroke-opacity="1" stroke-miterlimit="10"/><path fill="none" stroke="rgb(0,0,0)" paint-order="fill stroke markers" d=" M 44.5 1.5 L 48.5 5.5" stroke-opacity="1" stroke-miterlimit="10"/><path fill="none" stroke="rgb(0,0,0)" paint-order="fill stroke markers" d=" M 0.5 579.5 L 622.5 579.5" stroke-opacity="1" stroke-miterlimit="10"/><path fill="none" stroke="rgb(0,0,0)" paint-order="fill stroke markers" d=" M 623.5 579.5 L 619.5 575.5" stroke-opacity="1" stroke-miterlimit="10"/><path fill="none" stroke="rgb(0,0,0)" paint-order="fill stroke markers" d=" M 623.5 579.5 L 619.5 583.5" stroke-opacity="1" stroke-miterlimit="10"/><path fill="none" stroke="rgb(0,0,0)" paint-order="fill stroke markers" d=" M 44.5 579.5 L 44.5 582.5" stroke-opacity="1" stroke-miterlimit="10"/><text fill="rgb(0,0,0)" stroke="none" font-family="geogebra-sans-serif, sans-serif" font-size="12px" font-style="normal" font-weight="normal" text-decoration="normal" x="203" y="595" text-anchor="start" dominant-baseline="alphabetic" fill-opacity="1">1 / 3</text><text fill="rgb(0,0,0)" stroke="none" font-family="geogebra-sans-serif, sans-serif" font-size="12px" font-style="normal" font-weight="normal" text-decoration="normal" x="203" y="595" text-anchor="start" dominant-baseline="alphabetic" fill-opacity="1">1 / 3</text><path fill="none" stroke="rgb(0,0,0)" paint-order="fill stroke markers" d=" M 217.5 579.5 L 217.5 582.5" stroke-opacity="1" stroke-miterlimit="10"/><text fill="rgb(0,0,0)" stroke="none" font-family="geogebra-sans-serif, sans-serif" font-size="12px" font-style="normal" font-weight="normal" text-decoration="normal" x="377" y="595" text-anchor="start" dominant-baseline="alphabetic" fill-opacity="1">2 / 3</text><text fill="rgb(0,0,0)" stroke="none" font-family="geogebra-sans-serif, sans-serif" font-size="12px" font-style="normal" font-weight="normal" text-decoration="normal" x="377" y="595" text-anchor="start" dominant-baseline="alphabetic" fill-opacity="1">2 / 3</text><path fill="none" stroke="rgb(0,0,0)" paint-order="fill stroke markers" d=" M 391.5 579.5 L 391.5 582.5" stroke-opacity="1" stroke-miterlimit="10"/><text fill="rgb(0,0,0)" stroke="none" font-family="geogebra-sans-serif, sans-serif" font-size="12px" font-style="normal" font-weight="normal" text-decoration="normal" x="562" y="595" text-anchor="start" dominant-baseline="alphabetic" fill-opacity="1">1</text><text fill="rgb(0,0,0)" stroke="none" font-family="geogebra-sans-serif, sans-serif" font-size="12px" font-style="normal" font-weight="normal" text-decoration="normal" x="562" y="595" text-anchor="start" dominant-baseline="alphabetic" fill-opacity="1">1</text><path fill="none" stroke="rgb(0,0,0)" paint-order="fill stroke markers" d=" M 564.5 579.5 L 564.5 582.5" stroke-opacity="1" stroke-miterlimit="10"/><path fill="none" stroke="rgb(0,0,0)" paint-order="fill stroke markers" d=" M 41.5 406.5 L 44.5 406.5" stroke-opacity="1" stroke-miterlimit="10"/><path fill="none" stroke="rgb(0,0,0)" paint-order="fill stroke markers" d=" M 41.5 232.5 L 44.5 232.5" stroke-opacity="1" stroke-miterlimit="10"/><path fill="none" stroke="rgb(0,0,0)" paint-order="fill stroke markers" d=" M 41.5 59.5 L 44.5 59.5" stroke-opacity="1" stroke-miterlimit="10"/><text fill="rgb(0,0,0)" stroke="none" font-family="geogebra-sans-serif, sans-serif" font-size="12px" font-style="normal" font-weight="normal" text-decoration="normal" x="14" y="411" text-anchor="start" dominant-baseline="alphabetic" fill-opacity="1">1 / 3</text><text fill="rgb(0,0,0)" stroke="none" font-family="geogebra-sans-serif, sans-serif" font-size="12px" font-style="normal" font-weight="normal" text-decoration="normal" x="14" y="411" text-anchor="start" dominant-baseline="alphabetic" fill-opacity="1">1 / 3</text><text fill="rgb(0,0,0)" stroke="none" font-family="geogebra-sans-serif, sans-serif" font-size="12px" font-style="normal" font-weight="normal" text-decoration="normal" x="14" y="237" text-anchor="start" dominant-baseline="alphabetic" fill-opacity="1">2 / 3</text><text fill="rgb(0,0,0)" stroke="none" font-family="geogebra-sans-serif, sans-serif" font-size="12px" font-style="normal" font-weight="normal" text-decoration="normal" x="14" y="237" text-anchor="start" dominant-baseline="alphabetic" fill-opacity="1">2 / 3</text><text fill="rgb(0,0,0)" stroke="none" font-family="geogebra-sans-serif, sans-serif" font-size="12px" font-style="normal" font-weight="normal" text-decoration="normal" x="30" y="64" text-anchor="start" dominant-baseline="alphabetic" fill-opacity="1">1</text><text fill="rgb(0,0,0)" stroke="none" font-family="geogebra-sans-serif, sans-serif" font-size="12px" font-style="normal" font-weight="normal" text-decoration="normal" x="30" y="64" text-anchor="start" dominant-baseline="alphabetic" fill-opacity="1">1</text><text fill="rgb(0,0,0)" stroke="none" font-family="geogebra-sans-serif, sans-serif" font-size="12px" font-style="normal" font-weight="normal" text-decoration="normal" x="30" y="595" text-anchor="start" dominant-baseline="alphabetic" fill-opacity="1">0</text><text fill="rgb(0,0,0)" stroke="none" font-family="geogebra-sans-serif, sans-serif" font-size="12px" font-style="normal" font-weight="normal" text-decoration="normal" x="30" y="595" text-anchor="start" dominant-baseline="alphabetic" fill-opacity="1">0</text><path fill="rgb(128,128,128)" stroke="none" paint-order="stroke fill markers" fill-rule="evenodd" d=" M 44.83231093241959 579.2093133114196 L 564.2036974164398 579.2093133114196 L 44.83231093241959 59.83792682739545 Z" fill-opacity="0.09803921568627451"/><path fill="none" stroke="rgb(128,128,128)" paint-order="fill stroke markers" d=" M 44.83231093241959 579.2093133114196 L 564.2036974164398 579.2093133114196" stroke-opacity="0.6980392156862745" stroke-linecap="round" stroke-linejoin="round" stroke-miterlimit="10" stroke-width="2.5"/><path fill="none" stroke="rgb(128,128,128)" paint-order="fill stroke markers" d=" M 564.2036974164398 579.2093133114196 L 44.83231093241959 59.83792682739545" stroke-opacity="0.6980392156862745" stroke-linecap="round" stroke-linejoin="round" stroke-miterlimit="10" stroke-width="2.5"/><path fill="none" stroke="rgb(128,128,128)" paint-order="fill stroke markers" d=" M 44.83231093241959 59.83792682739545 L 44.83231093241959 579.2093133114196" stroke-opacity="0.6980392156862745" stroke-linecap="round" stroke-linejoin="round" stroke-miterlimit="10" stroke-width="2.5"/><path fill="rgb(128,128,128)" stroke="none" paint-order="stroke fill markers" d=" M 48.83231093241959 579.2093133114196 C 48.83231093241959 581.4184523107427 47.04144993174276 583.2093133114196 44.83231093241959 583.2093133114196 C 42.623171933096415 583.2093133114196 40.83231093241959 581.4184523107427 40.83231093241959 579.2093133114196 C 40.83231093241959 577.0001743120964 42.623171933096415 575.2093133114196 44.83231093241959 575.2093133114196 C 47.04144993174276 575.2093133114196 48.83231093241959 577.0001743120964 48.83231093241959 579.2093133114196 Z" fill-opacity="1"/><path fill="none" stroke="rgb(0,0,0)" paint-order="fill stroke markers" d=" M 48.83231093241959 579.2093133114196 C 48.83231093241959 581.4184523107427 47.04144993174276 583.2093133114196 44.83231093241959 583.2093133114196 C 42.623171933096415 583.2093133114196 40.83231093241959 581.4184523107427 40.83231093241959 579.2093133114196 C 40.83231093241959 577.0001743120964 42.623171933096415 575.2093133114196 44.83231093241959 575.2093133114196 C 47.04144993174276 575.2093133114196 48.83231093241959 577.0001743120964 48.83231093241959 579.2093133114196 Z" stroke-opacity="1" stroke-linecap="round" stroke-linejoin="round" stroke-miterlimit="10"/><path fill="rgb(128,128,128)" stroke="none" paint-order="stroke fill markers" d=" M 568.2036974164398 579.2093133114196 C 568.2036974164398 581.4184523107427 566.412836415763 583.2093133114196 564.2036974164398 583.2093133114196 C 561.9945584171167 583.2093133114196 560.2036974164398 581.4184523107427 560.2036974164398 579.2093133114196 C 560.2036974164398 577.0001743120964 561.9945584171167 575.2093133114196 564.2036974164398 575.2093133114196 C 566.412836415763 575.2093133114196 568.2036974164398 577.0001743120964 568.2036974164398 579.2093133114196 Z" fill-opacity="1"/><path fill="none" stroke="rgb(0,0,0)" paint-order="fill stroke markers" d=" M 568.2036974164398 579.2093133114196 C 568.2036974164398 581.4184523107427 566.412836415763 583.2093133114196 564.2036974164398 583.2093133114196 C 561.9945584171167 583.2093133114196 560.2036974164398 581.4184523107427 560.2036974164398 579.2093133114196 C 560.2036974164398 577.0001743120964 561.9945584171167 575.2093133114196 564.2036974164398 575.2093133114196 C 566.412836415763 575.2093133114196 568.2036974164398 577.0001743120964 568.2036974164398 579.2093133114196 Z" stroke-opacity="1" stroke-linecap="round" stroke-linejoin="round" stroke-miterlimit="10"/><path fill="rgb(128,128,128)" stroke="none" paint-order="stroke fill markers" d=" M 48.83231093241959 59.83792682739545 C 48.83231093241959 62.04706582671862 47.04144993174276 63.83792682739545 44.83231093241959 63.83792682739545 C 42.623171933096415 63.83792682739545 40.83231093241959 62.04706582671862 40.83231093241959 59.83792682739545 C 40.83231093241959 57.62878782807228 42.623171933096415 55.83792682739545 44.83231093241959 55.83792682739545 C 47.04144993174276 55.83792682739545 48.83231093241959 57.62878782807228 48.83231093241959 59.83792682739545 Z" fill-opacity="1"/><path fill="none" stroke="rgb(0,0,0)" paint-order="fill stroke markers" d=" M 48.83231093241959 59.83792682739545 C 48.83231093241959 62.04706582671862 47.04144993174276 63.83792682739545 44.83231093241959 63.83792682739545 C 42.623171933096415 63.83792682739545 40.83231093241959 62.04706582671862 40.83231093241959 59.83792682739545 C 40.83231093241959 57.62878782807228 42.623171933096415 55.83792682739545 44.83231093241959 55.83792682739545 C 47.04144993174276 55.83792682739545 48.83231093241959 57.62878782807228 48.83231093241959 59.83792682739545 Z" stroke-opacity="1" stroke-linecap="round" stroke-linejoin="round" stroke-miterlimit="10"/><path fill="rgb(255,0,0)" stroke="none" paint-order="stroke fill markers" d=" M 396.0799019217664 492.6474155640822 C 396.0799019217664 495.4088393132362 393.84132567092036 497.6474155640822 391.0799019217664 497.6474155640822 C 388.31847817261246 497.6474155640822 386.0799019217664 495.4088393132362 386.0799019217664 492.6474155640822 C 386.0799019217664 489.8859918149283 388.31847817261246 487.6474155640822 391.0799019217664 487.6474155640822 C 393.84132567092036 487.6474155640822 396.0799019217664 489.8859918149283 396.0799019217664 492.6474155640822 Z" fill-opacity="1"/><path fill="none" stroke="rgb(0,0,0)" paint-order="fill stroke markers" d=" M 396.0799019217664 492.6474155640822 C 396.0799019217664 495.4088393132362 393.84132567092036 497.6474155640822 391.0799019217664 497.6474155640822 C 388.31847817261246 497.6474155640822 386.0799019217664 495.4088393132362 386.0799019217664 492.6474155640822 C 386.0799019217664 489.8859918149283 388.31847817261246 487.6474155640822 391.0799019217664 487.6474155640822 C 393.84132567092036 487.6474155640822 396.0799019217664 489.8859918149283 396.0799019217664 492.6474155640822 Z" stroke-opacity="1" stroke-linecap="round" stroke-linejoin="round" stroke-miterlimit="10"/><path fill="rgb(255,0,0)" stroke="none" paint-order="stroke fill markers" d=" M 136.39420867975628 492.6474155640822 C 136.39420867975628 495.4088393132362 134.15563242891025 497.6474155640822 131.39420867975628 497.6474155640822 C 128.6327849306023 497.6474155640822 126.39420867975628 495.4088393132362 126.39420867975628 492.6474155640822 C 126.39420867975628 489.8859918149283 128.6327849306023 487.6474155640822 131.39420867975628 487.6474155640822 C 134.15563242891025 487.6474155640822 136.39420867975628 489.8859918149283 136.39420867975628 492.6474155640822 Z" fill-opacity="1"/><path fill="none" stroke="rgb(0,0,0)" paint-order="fill stroke markers" d=" M 136.39420867975628 492.6474155640822 C 136.39420867975628 495.4088393132362 134.15563242891025 497.6474155640822 131.39420867975628 497.6474155640822 C 128.6327849306023 497.6474155640822 126.39420867975628 495.4088393132362 126.39420867975628 492.6474155640822 C 126.39420867975628 489.8859918149283 128.6327849306023 487.6474155640822 131.39420867975628 487.6474155640822 C 134.15563242891025 487.6474155640822 136.39420867975628 489.8859918149283 136.39420867975628 492.6474155640822 Z" stroke-opacity="1" stroke-linecap="round" stroke-linejoin="round" stroke-miterlimit="10"/><path fill="rgb(255,0,0)" stroke="none" paint-order="stroke fill markers" d=" M 136.39420867975628 232.96172232207016 C 136.39420867975628 235.72314607122414 134.15563242891025 237.96172232207016 131.39420867975628 237.96172232207016 C 128.6327849306023 237.96172232207016 126.39420867975628 235.72314607122414 126.39420867975628 232.96172232207016 C 126.39420867975628 230.20029857291618 128.6327849306023 227.96172232207016 131.39420867975628 227.96172232207016 C 134.15563242891025 227.96172232207016 136.39420867975628 230.20029857291618 136.39420867975628 232.96172232207016 Z" fill-opacity="1"/><path fill="none" stroke="rgb(0,0,0)" paint-order="fill stroke markers" d=" M 136.39420867975628 232.96172232207016 C 136.39420867975628 235.72314607122414 134.15563242891025 237.96172232207016 131.39420867975628 237.96172232207016 C 128.6327849306023 237.96172232207016 126.39420867975628 235.72314607122414 126.39420867975628 232.96172232207016 C 126.39420867975628 230.20029857291618 128.6327849306023 227.96172232207016 131.39420867975628 227.96172232207016 C 134.15563242891025 227.96172232207016 136.39420867975628 230.20029857291618 136.39420867975628 232.96172232207016 Z" stroke-opacity="1" stroke-linecap="round" stroke-linejoin="round" stroke-miterlimit="10"/><g transform="scale(19,19)"><g transform="translate(5.799764042730526,11.854526315789474)"><path fill="rgb(255,0,0)" stroke="none" paint-order="stroke fill markers" d=" M 0.294 -0.64 L 0.294 -0.079 Q 0.294 -0.049 0.306 -0.041 Q 0.323 -0.031 0.387 -0.031 L 0.419 -0.031 L 0.419 0 Q 0.384 -0.003 0.257 -0.003 Q 0.13 -0.003 0.095 0 L 0.095 -0.031 L 0.127 -0.031 Q 0.20400000000000001 -0.031 0.215 -0.049 L 0.216 -0.05 Q 0.22 -0.058 0.22 -0.079 L 0.22 -0.597 Q 0.168 -0.5710000000000001 0.089 -0.5710000000000001 L 0.089 -0.602 Q 0.209 -0.602 0.271 -0.666 Q 0.29 -0.666 0.293 -0.659 L 0.293 -0.659 L 0.293 -0.658 Q 0.294 -0.655 0.294 -0.64 Z"/></g><rect fill="rgb(255,0,0)" stroke="none" x="5.799764042730526" y="12.261034815789474" width="0.5" height="0.039999"/><g transform="translate(5.799764042730526,13.216985315789474)"><path fill="rgb(255,0,0)" stroke="none" paint-order="stroke fill markers" d=" M 0.132 -0.328 L 0.132 -0.328 Q 0.17300000000000001 -0.427 0.257 -0.427 Q 0.34900000000000003 -0.427 0.40800000000000003 -0.35100000000000003 Q 0.441 -0.31 0.452 -0.255 Q 0.457 -0.23 0.457 -0.20400000000000001 Q 0.457 -0.093 0.38 -0.026000000000000002 Q 0.324 0.022 0.251 0.022 Q 0.149 0.022 0.092 -0.075 Q 0.042 -0.162 0.042 -0.316 Q 0.042 -0.489 0.14 -0.591 Q 0.213 -0.666 0.305 -0.666 Q 0.392 -0.666 0.422 -0.605 Q 0.432 -0.584 0.432 -0.558 Q 0.432 -0.518 0.395 -0.511 Q 0.39 -0.51 0.386 -0.51 Q 0.354 -0.51 0.343 -0.538 Q 0.34 -0.546 0.34 -0.556 Q 0.34 -0.601 0.395 -0.601 Q 0.369 -0.641 0.307 -0.641 Q 0.23700000000000002 -0.641 0.189 -0.578 Q 0.132 -0.503 0.132 -0.352 L 0.132 -0.328 M 0.251 -0.006 L 0.251 -0.006 Q 0.318 -0.006 0.35000000000000003 -0.07100000000000001 Q 0.367 -0.107 0.367 -0.20500000000000002 Q 0.367 -0.305 0.34900000000000003 -0.342 Q 0.318 -0.404 0.256 -0.404 Q 0.177 -0.404 0.147 -0.31 Q 0.134 -0.271 0.134 -0.226 Q 0.134 -0.128 0.152 -0.081 Q 0.171 -0.035 0.211 -0.015 Q 0.23 -0.006 0.251 -0.006 Z"/></g></g><g transform="scale(19,19)"><g transform="translate(5.536606147993684,25.486105263157892)"><path fill="rgb(255,0,0)" stroke="none" paint-order="stroke fill markers" d=" M 0.294 -0.64 L 0.294 -0.079 Q 0.294 -0.049 0.306 -0.041 Q 0.323 -0.031 0.387 -0.031 L 0.419 -0.031 L 0.419 0 Q 0.384 -0.003 0.257 -0.003 Q 0.13 -0.003 0.095 0 L 0.095 -0.031 L 0.127 -0.031 Q 0.20400000000000001 -0.031 0.215 -0.049 L 0.216 -0.05 Q 0.22 -0.058 0.22 -0.079 L 0.22 -0.597 Q 0.168 -0.5710000000000001 0.089 -0.5710000000000001 L 0.089 -0.602 Q 0.209 -0.602 0.271 -0.666 Q 0.29 -0.666 0.293 -0.659 L 0.293 -0.659 L 0.293 -0.658 Q 0.294 -0.655 0.294 -0.64 Z"/></g><rect fill="rgb(255,0,0)" stroke="none" x="5.536606147993684" y="25.892613763157893" width="0.5" height="0.039999"/><g transform="translate(5.536606147993684,26.848564263157893)"><path fill="rgb(255,0,0)" stroke="none" paint-order="stroke fill markers" d=" M 0.132 -0.328 L 0.132 -0.328 Q 0.17300000000000001 -0.427 0.257 -0.427 Q 0.34900000000000003 -0.427 0.40800000000000003 -0.35100000000000003 Q 0.441 -0.31 0.452 -0.255 Q 0.457 -0.23 0.457 -0.20400000000000001 Q 0.457 -0.093 0.38 -0.026000000000000002 Q 0.324 0.022 0.251 0.022 Q 0.149 0.022 0.092 -0.075 Q 0.042 -0.162 0.042 -0.316 Q 0.042 -0.489 0.14 -0.591 Q 0.213 -0.666 0.305 -0.666 Q 0.392 -0.666 0.422 -0.605 Q 0.432 -0.584 0.432 -0.558 Q 0.432 -0.518 0.395 -0.511 Q 0.39 -0.51 0.386 -0.51 Q 0.354 -0.51 0.343 -0.538 Q 0.34 -0.546 0.34 -0.556 Q 0.34 -0.601 0.395 -0.601 Q 0.369 -0.641 0.307 -0.641 Q 0.23700000000000002 -0.641 0.189 -0.578 Q 0.132 -0.503 0.132 -0.352 L 0.132 -0.328 M 0.251 -0.006 L 0.251 -0.006 Q 0.318 -0.006 0.35000000000000003 -0.07100000000000001 Q 0.367 -0.107 0.367 -0.20500000000000002 Q 0.367 -0.305 0.34900000000000003 -0.342 Q 0.318 -0.404 0.256 -0.404 Q 0.177 -0.404 0.147 -0.31 Q 0.134 -0.271 0.134 -0.226 Q 0.134 -0.128 0.152 -0.081 Q 0.171 -0.035 0.211 -0.015 Q 0.23 -0.006 0.251 -0.006 Z"/></g></g><g transform="scale(19,19)"><g transform="translate(19.431342990098948,25.486105263157892)"><path fill="rgb(255,0,0)" stroke="none" paint-order="stroke fill markers" d=" M 0.294 -0.64 L 0.294 -0.079 Q 0.294 -0.049 0.306 -0.041 Q 0.323 -0.031 0.387 -0.031 L 0.419 -0.031 L 0.419 0 Q 0.384 -0.003 0.257 -0.003 Q 0.13 -0.003 0.095 0 L 0.095 -0.031 L 0.127 -0.031 Q 0.20400000000000001 -0.031 0.215 -0.049 L 0.216 -0.05 Q 0.22 -0.058 0.22 -0.079 L 0.22 -0.597 Q 0.168 -0.5710000000000001 0.089 -0.5710000000000001 L 0.089 -0.602 Q 0.209 -0.602 0.271 -0.666 Q 0.29 -0.666 0.293 -0.659 L 0.293 -0.659 L 0.293 -0.658 Q 0.294 -0.655 0.294 -0.64 Z"/></g><rect fill="rgb(255,0,0)" stroke="none" x="19.431342990098948" y="25.892613763157893" width="0.5" height="0.039999"/><g transform="translate(19.431342990098948,26.848564263157893)"><path fill="rgb(255,0,0)" stroke="none" paint-order="stroke fill markers" d=" M 0.132 -0.328 L 0.132 -0.328 Q 0.17300000000000001 -0.427 0.257 -0.427 Q 0.34900000000000003 -0.427 0.40800000000000003 -0.35100000000000003 Q 0.441 -0.31 0.452 -0.255 Q 0.457 -0.23 0.457 -0.20400000000000001 Q 0.457 -0.093 0.38 -0.026000000000000002 Q 0.324 0.022 0.251 0.022 Q 0.149 0.022 0.092 -0.075 Q 0.042 -0.162 0.042 -0.316 Q 0.042 -0.489 0.14 -0.591 Q 0.213 -0.666 0.305 -0.666 Q 0.392 -0.666 0.422 -0.605 Q 0.432 -0.584 0.432 -0.558 Q 0.432 -0.518 0.395 -0.511 Q 0.39 -0.51 0.386 -0.51 Q 0.354 -0.51 0.343 -0.538 Q 0.34 -0.546 0.34 -0.556 Q 0.34 -0.601 0.395 -0.601 Q 0.369 -0.641 0.307 -0.641 Q 0.23700000000000002 -0.641 0.189 -0.578 Q 0.132 -0.503 0.132 -0.352 L 0.132 -0.328 M 0.251 -0.006 L 0.251 -0.006 Q 0.318 -0.006 0.35000000000000003 -0.07100000000000001 Q 0.367 -0.107 0.367 -0.20500000000000002 Q 0.367 -0.305 0.34900000000000003 -0.342 Q 0.318 -0.404 0.256 -0.404 Q 0.177 -0.404 0.147 -0.31 Q 0.134 -0.271 0.134 -0.226 Q 0.134 -0.128 0.152 -0.081 Q 0.171 -0.035 0.211 -0.015 Q 0.23 -0.006 0.251 -0.006 Z"/></g></g></g></g></svg>