<svg version="1.1" xmlns="http://www.w3.org/2000/svg" xmlns:xlink="http://www.w3.org/1999/xlink" width="721" height="636"><defs><clipPath id="SVHMMsWfytzc"><path fill="none" stroke="none" d=" M 0 0 L 721 0 L 721 636 L 0 636 L 0 0 Z"/></clipPath></defs><g transform="scale(1,1)" clip-path="url(#SVHMMsWfytzc)"><g><rect fill="rgb(255,255,255)" stroke="none" x="0" y="0" width="721" height="636" fill-opacity="1"/><path fill="none" stroke="rgb(192,192,192)" paint-order="fill stroke markers" d=" M 94.5 0.5 L 94.5 636.5 M 94.5 0.5 L 94.5 636.5 M 228.5 0.5 L 228.5 636.5 M 497.5 0.5 L 497.5 636.5 M 632.5 0.5 L 632.5 636.5" stroke-opacity="1" stroke-linecap="round" stroke-linejoin="round" stroke-miterlimit="10"/><path fill="none" stroke="rgb(192,192,192)" paint-order="fill stroke markers" d=" M 13.5 0.5 L 13.5 636.5 M 40.5 0.5 L 40.5 636.5 M 67.5 0.5 L 67.5 636.5 M 121.5 0.5 L 121.5 636.5 M 148.5 0.5 L 148.5 636.5 M 175.5 0.5 L 175.5 636.5 M 202.5 0.5 L 202.5 636.5 M 255.5 0.5 L 255.5 636.5 M 282.5 0.5 L 282.5 636.5 M 309.5 0.5 L 309.5 636.5 M 336.5 0.5 L 336.5 636.5 M 390.5 0.5 L 390.5 636.5 M 417.5 0.5 L 417.5 636.5 M 444.5 0.5 L 444.5 636.5 M 470.5 0.5 L 470.5 636.5 M 524.5 0.5 L 524.5 636.5 M 551.5 0.5 L 551.5 636.5 M 578.5 0.5 L 578.5 636.5 M 605.5 0.5 L 605.5 636.5 M 659.5 0.5 L 659.5 636.5 M 686.5 0.5 L 686.5 636.5 M 712.5 0.5 L 712.5 636.5" stroke-opacity="0.23529411764705882" stroke-linecap="round" stroke-linejoin="round" stroke-miterlimit="10"/><path fill="none" stroke="rgb(192,192,192)" paint-order="fill stroke markers" d=" M 0.5 51.5 L 721.5 51.5 M 0.5 51.5 L 721.5 51.5 M 0.5 186.5 L 721.5 186.5 M 0.5 455.5 L 721.5 455.5 M 0.5 589.5 L 721.5 589.5" stroke-opacity="1" stroke-linecap="round" stroke-linejoin="round" stroke-miterlimit="10"/><path fill="none" stroke="rgb(192,192,192)" paint-order="fill stroke markers" d=" M 0.5 24.5 L 721.5 24.5 M 0.5 24.5 L 721.5 24.5 M 0.5 78.5 L 721.5 78.5 M 0.5 105.5 L 721.5 105.5 M 0.5 132.5 L 721.5 132.5 M 0.5 159.5 L 721.5 159.5 M 0.5 213.5 L 721.5 213.5 M 0.5 239.5 L 721.5 239.5 M 0.5 266.5 L 721.5 266.5 M 0.5 293.5 L 721.5 293.5 M 0.5 347.5 L 721.5 347.5 M 0.5 374.5 L 721.5 374.5 M 0.5 401.5 L 721.5 401.5 M 0.5 428.5 L 721.5 428.5 M 0.5 481.5 L 721.5 481.5 M 0.5 508.5 L 721.5 508.5 M 0.5 535.5 L 721.5 535.5 M 0.5 562.5 L 721.5 562.5 M 0.5 616.5 L 721.5 616.5" stroke-opacity="0.23529411764705882" stroke-linecap="round" stroke-linejoin="round" stroke-miterlimit="10"/><path fill="none" stroke="rgb(0,0,0)" paint-order="fill stroke markers" d=" M 363.5 2.5 L 363.5 636.5" stroke-opacity="1" stroke-miterlimit="10"/><path fill="none" stroke="rgb(0,0,0)" paint-order="fill stroke markers" d=" M 363.5 1.5 L 359.5 5.5" stroke-opacity="1" stroke-miterlimit="10"/><path fill="none" stroke="rgb(0,0,0)" paint-order="fill stroke markers" d=" M 363.5 1.5 L 367.5 5.5" stroke-opacity="1" stroke-miterlimit="10"/><path fill="none" stroke="rgb(0,0,0)" paint-order="fill stroke markers" d=" M 0.5 320.5 L 719.5 320.5" stroke-opacity="1" stroke-miterlimit="10"/><path fill="none" stroke="rgb(0,0,0)" paint-order="fill stroke markers" d=" M 720.5 320.5 L 716.5 316.5" stroke-opacity="1" stroke-miterlimit="10"/><path fill="none" stroke="rgb(0,0,0)" paint-order="fill stroke markers" d=" M 720.5 320.5 L 716.5 324.5" stroke-opacity="1" stroke-miterlimit="10"/><text fill="rgb(0,0,0)" stroke="none" font-family="geogebra-sans-serif, sans-serif" font-size="12px" font-style="normal" font-weight="normal" text-decoration="normal" x="89" y="336" text-anchor="start" dominant-baseline="alphabetic" fill-opacity="1">–1</text><text fill="rgb(0,0,0)" stroke="none" font-family="geogebra-sans-serif, sans-serif" font-size="12px" font-style="normal" font-weight="normal" text-decoration="normal" x="89" y="336" text-anchor="start" dominant-baseline="alphabetic" fill-opacity="1">–1</text><text fill="rgb(0,0,0)" stroke="none" font-family="geogebra-sans-serif, sans-serif" font-size="12px" font-style="normal" font-weight="normal" text-decoration="normal" x="217" y="336" text-anchor="start" dominant-baseline="alphabetic" fill-opacity="1">–0.5</text><text fill="rgb(0,0,0)" stroke="none" font-family="geogebra-sans-serif, sans-serif" font-size="12px" font-style="normal" font-weight="normal" text-decoration="normal" x="217" y="336" text-anchor="start" dominant-baseline="alphabetic" fill-opacity="1">–0.5</text><text fill="rgb(0,0,0)" stroke="none" font-family="geogebra-sans-serif, sans-serif" font-size="12px" font-style="normal" font-weight="normal" text-decoration="normal" x="489" y="336" text-anchor="start" dominant-baseline="alphabetic" fill-opacity="1">0.5</text><text fill="rgb(0,0,0)" stroke="none" font-family="geogebra-sans-serif, sans-serif" font-size="12px" font-style="normal" font-weight="normal" text-decoration="normal" x="489" y="336" text-anchor="start" dominant-baseline="alphabetic" fill-opacity="1">0.5</text><text fill="rgb(0,0,0)" stroke="none" font-family="geogebra-sans-serif, sans-serif" font-size="12px" font-style="normal" font-weight="normal" text-decoration="normal" x="630" y="336" text-anchor="start" dominant-baseline="alphabetic" fill-opacity="1">1</text><text fill="rgb(0,0,0)" stroke="none" font-family="geogebra-sans-serif, sans-serif" font-size="12px" font-style="normal" font-weight="normal" text-decoration="normal" x="630" y="336" text-anchor="start" dominant-baseline="alphabetic" fill-opacity="1">1</text><text fill="rgb(0,0,0)" stroke="none" font-family="geogebra-sans-serif, sans-serif" font-size="12px" font-style="normal" font-weight="normal" text-decoration="normal" x="342" y="594" text-anchor="start" dominant-baseline="alphabetic" fill-opacity="1">–1</text><text fill="rgb(0,0,0)" stroke="none" font-family="geogebra-sans-serif, sans-serif" font-size="12px" font-style="normal" font-weight="normal" text-decoration="normal" x="342" y="594" text-anchor="start" dominant-baseline="alphabetic" fill-opacity="1">–1</text><text fill="rgb(0,0,0)" stroke="none" font-family="geogebra-sans-serif, sans-serif" font-size="12px" font-style="normal" font-weight="normal" text-decoration="normal" x="332" y="460" text-anchor="start" dominant-baseline="alphabetic" fill-opacity="1">–0.5</text><text fill="rgb(0,0,0)" stroke="none" font-family="geogebra-sans-serif, sans-serif" font-size="12px" font-style="normal" font-weight="normal" text-decoration="normal" x="332" y="460" text-anchor="start" dominant-baseline="alphabetic" fill-opacity="1">–0.5</text><text fill="rgb(0,0,0)" stroke="none" font-family="geogebra-sans-serif, sans-serif" font-size="12px" font-style="normal" font-weight="normal" text-decoration="normal" x="339" y="191" text-anchor="start" dominant-baseline="alphabetic" fill-opacity="1">0.5</text><text fill="rgb(0,0,0)" stroke="none" font-family="geogebra-sans-serif, sans-serif" font-size="12px" font-style="normal" font-weight="normal" text-decoration="normal" x="339" y="191" text-anchor="start" dominant-baseline="alphabetic" fill-opacity="1">0.5</text><text fill="rgb(0,0,0)" stroke="none" font-family="geogebra-sans-serif, sans-serif" font-size="12px" font-style="normal" font-weight="normal" text-decoration="normal" x="349" y="56" text-anchor="start" dominant-baseline="alphabetic" fill-opacity="1">1</text><text fill="rgb(0,0,0)" stroke="none" font-family="geogebra-sans-serif, sans-serif" font-size="12px" font-style="normal" font-weight="normal" text-decoration="normal" x="349" y="56" text-anchor="start" dominant-baseline="alphabetic" fill-opacity="1">1</text><text fill="rgb(0,0,0)" stroke="none" font-family="geogebra-sans-serif, sans-serif" font-size="12px" font-style="normal" font-weight="normal" text-decoration="normal" x="349" y="336" text-anchor="start" dominant-baseline="alphabetic" fill-opacity="1">0</text><text fill="rgb(0,0,0)" stroke="none" font-family="geogebra-sans-serif, sans-serif" font-size="12px" font-style="normal" font-weight="normal" text-decoration="normal" x="349" y="336" text-anchor="start" dominant-baseline="alphabetic" fill-opacity="1">0</text><path fill="rgb(0,0,0)" stroke="none" paint-order="stroke fill markers" fill-rule="evenodd" d=" M 94.53998315056361 589.4501057173826 L 632.233741518334 589.4501057173826 L 632.233741518334 51.75634734961193 L 94.53998315056361 51.75634734961193 Z" fill-opacity="0.09803921568627451"/><path fill="none" stroke="rgb(0,0,0)" paint-order="fill stroke markers" d=" M 94.53998315056361 589.4501057173826 L 632.233741518334 589.4501057173826" stroke-opacity="0.6980392156862745" stroke-linecap="round" stroke-linejoin="round" stroke-miterlimit="10" stroke-width="2.5"/><path fill="none" stroke="rgb(0,0,0)" paint-order="fill stroke markers" d=" M 632.233741518334 589.4501057173826 L 632.233741518334 51.75634734961193" stroke-opacity="0.6980392156862745" stroke-linecap="round" stroke-linejoin="round" stroke-miterlimit="10" stroke-width="2.5"/><path fill="none" stroke="rgb(0,0,0)" paint-order="fill stroke markers" d=" M 632.233741518334 51.75634734961193 L 94.53998315056361 51.75634734961193" stroke-opacity="0.6980392156862745" stroke-linecap="round" stroke-linejoin="round" stroke-miterlimit="10" stroke-width="2.5"/><path fill="none" stroke="rgb(0,0,0)" paint-order="fill stroke markers" d=" M 94.53998315056361 51.75634734961193 L 94.53998315056361 589.4501057173826" stroke-opacity="0.6980392156862745" stroke-linecap="round" stroke-linejoin="round" stroke-miterlimit="10" stroke-width="2.5"/><path fill="rgb(0,0,0)" stroke="none" paint-order="stroke fill markers" d=" M 98.53998315056361 589.4501057173826 C 98.53998315056361 591.6592447167058 96.74912214988679 593.4501057173826 94.53998315056361 593.4501057173826 C 92.33084415124044 593.4501057173826 90.53998315056361 591.6592447167058 90.53998315056361 589.4501057173826 C 90.53998315056361 587.2409667180594 92.33084415124044 585.4501057173826 94.53998315056361 585.4501057173826 C 96.74912214988679 585.4501057173826 98.53998315056361 587.2409667180594 98.53998315056361 589.4501057173826 Z" fill-opacity="1"/><path fill="none" stroke="rgb(0,0,0)" paint-order="fill stroke markers" d=" M 98.53998315056361 589.4501057173826 C 98.53998315056361 591.6592447167058 96.74912214988679 593.4501057173826 94.53998315056361 593.4501057173826 C 92.33084415124044 593.4501057173826 90.53998315056361 591.6592447167058 90.53998315056361 589.4501057173826 C 90.53998315056361 587.2409667180594 92.33084415124044 585.4501057173826 94.53998315056361 585.4501057173826 C 96.74912214988679 585.4501057173826 98.53998315056361 587.2409667180594 98.53998315056361 589.4501057173826 Z" stroke-opacity="1" stroke-linecap="round" stroke-linejoin="round" stroke-miterlimit="10"/><text fill="rgb(0,0,0)" stroke="none" font-family="geogebra-sans-serif, sans-serif" font-size="16px" font-style="normal" font-weight="normal" text-decoration="normal" x="68" y="581" text-anchor="start" dominant-baseline="alphabetic" fill-opacity="1">P</text><text fill="rgb(0,0,0)" stroke="none" font-family="geogebra-sans-serif, sans-serif" font-size="16px" font-style="normal" font-weight="normal" text-decoration="normal" x="68" y="581" text-anchor="start" dominant-baseline="alphabetic" fill-opacity="1">P</text><text fill="rgb(0,0,0)" stroke="none" font-family="geogebra-sans-serif, sans-serif" font-size="14px" font-style="normal" font-weight="normal" text-decoration="normal" x="79" y="588" text-anchor="start" dominant-baseline="alphabetic" fill-opacity="1">1</text><text fill="rgb(0,0,0)" stroke="none" font-family="geogebra-sans-serif, sans-serif" font-size="14px" font-style="normal" font-weight="normal" text-decoration="normal" x="79" y="588" text-anchor="start" dominant-baseline="alphabetic" fill-opacity="1">1</text><path fill="rgb(0,0,0)" stroke="none" paint-order="stroke fill markers" d=" M 636.233741518334 589.4501057173826 C 636.233741518334 591.6592447167058 634.4428805176572 593.4501057173826 632.233741518334 593.4501057173826 C 630.0246025190108 593.4501057173826 628.233741518334 591.6592447167058 628.233741518334 589.4501057173826 C 628.233741518334 587.2409667180594 630.0246025190108 585.4501057173826 632.233741518334 585.4501057173826 C 634.4428805176572 585.4501057173826 636.233741518334 587.2409667180594 636.233741518334 589.4501057173826 Z" fill-opacity="1"/><path fill="none" stroke="rgb(0,0,0)" paint-order="fill stroke markers" d=" M 636.233741518334 589.4501057173826 C 636.233741518334 591.6592447167058 634.4428805176572 593.4501057173826 632.233741518334 593.4501057173826 C 630.0246025190108 593.4501057173826 628.233741518334 591.6592447167058 628.233741518334 589.4501057173826 C 628.233741518334 587.2409667180594 630.0246025190108 585.4501057173826 632.233741518334 585.4501057173826 C 634.4428805176572 585.4501057173826 636.233741518334 587.2409667180594 636.233741518334 589.4501057173826 Z" stroke-opacity="1" stroke-linecap="round" stroke-linejoin="round" stroke-miterlimit="10"/><text fill="rgb(0,0,0)" stroke="none" font-family="geogebra-sans-serif, sans-serif" font-size="16px" font-style="normal" font-weight="normal" text-decoration="normal" x="636" y="581" text-anchor="start" dominant-baseline="alphabetic" fill-opacity="1">P</text><text fill="rgb(0,0,0)" stroke="none" font-family="geogebra-sans-serif, sans-serif" font-size="16px" font-style="normal" font-weight="normal" text-decoration="normal" x="636" y="581" text-anchor="start" dominant-baseline="alphabetic" fill-opacity="1">P</text><text fill="rgb(0,0,0)" stroke="none" font-family="geogebra-sans-serif, sans-serif" font-size="14px" font-style="normal" font-weight="normal" text-decoration="normal" x="647" y="588" text-anchor="start" dominant-baseline="alphabetic" fill-opacity="1">5</text><text fill="rgb(0,0,0)" stroke="none" font-family="geogebra-sans-serif, sans-serif" font-size="14px" font-style="normal" font-weight="normal" text-decoration="normal" x="647" y="588" text-anchor="start" dominant-baseline="alphabetic" fill-opacity="1">5</text><path fill="rgb(0,0,0)" stroke="none" paint-order="stroke fill markers" d=" M 636.233741518334 51.75634734961193 C 636.233741518334 53.9654863489351 634.4428805176572 55.75634734961193 632.233741518334 55.75634734961193 C 630.0246025190108 55.75634734961193 628.233741518334 53.9654863489351 628.233741518334 51.75634734961193 C 628.233741518334 49.547208350288756 630.0246025190108 47.75634734961193 632.233741518334 47.75634734961193 C 634.4428805176572 47.75634734961193 636.233741518334 49.547208350288756 636.233741518334 51.75634734961193 Z" fill-opacity="1"/><path fill="none" stroke="rgb(0,0,0)" paint-order="fill stroke markers" d=" M 636.233741518334 51.75634734961193 C 636.233741518334 53.9654863489351 634.4428805176572 55.75634734961193 632.233741518334 55.75634734961193 C 630.0246025190108 55.75634734961193 628.233741518334 53.9654863489351 628.233741518334 51.75634734961193 C 628.233741518334 49.547208350288756 630.0246025190108 47.75634734961193 632.233741518334 47.75634734961193 C 634.4428805176572 47.75634734961193 636.233741518334 49.547208350288756 636.233741518334 51.75634734961193 Z" stroke-opacity="1" stroke-linecap="round" stroke-linejoin="round" stroke-miterlimit="10"/><text fill="rgb(0,0,0)" stroke="none" font-family="geogebra-sans-serif, sans-serif" font-size="16px" font-style="normal" font-weight="normal" text-decoration="normal" x="644" y="49" text-anchor="start" dominant-baseline="alphabetic" fill-opacity="1">P</text><text fill="rgb(0,0,0)" stroke="none" font-family="geogebra-sans-serif, sans-serif" font-size="16px" font-style="normal" font-weight="normal" text-decoration="normal" x="644" y="49" text-anchor="start" dominant-baseline="alphabetic" fill-opacity="1">P</text><text fill="rgb(0,0,0)" stroke="none" font-family="geogebra-sans-serif, sans-serif" font-size="14px" font-style="normal" font-weight="normal" text-decoration="normal" x="655" y="56" text-anchor="start" dominant-baseline="alphabetic" fill-opacity="1">3</text><text fill="rgb(0,0,0)" stroke="none" font-family="geogebra-sans-serif, sans-serif" font-size="14px" font-style="normal" font-weight="normal" text-decoration="normal" x="655" y="56" text-anchor="start" dominant-baseline="alphabetic" fill-opacity="1">3</text><path fill="rgb(0,0,0)" stroke="none" paint-order="stroke fill markers" d=" M 98.53998315056361 51.75634734961193 C 98.53998315056361 53.9654863489351 96.74912214988679 55.75634734961193 94.53998315056361 55.75634734961193 C 92.33084415124044 55.75634734961193 90.53998315056361 53.9654863489351 90.53998315056361 51.75634734961193 C 90.53998315056361 49.547208350288756 92.33084415124044 47.75634734961193 94.53998315056361 47.75634734961193 C 96.74912214988679 47.75634734961193 98.53998315056361 49.547208350288756 98.53998315056361 51.75634734961193 Z" fill-opacity="1"/><path fill="none" stroke="rgb(0,0,0)" paint-order="fill stroke markers" d=" M 98.53998315056361 51.75634734961193 C 98.53998315056361 53.9654863489351 96.74912214988679 55.75634734961193 94.53998315056361 55.75634734961193 C 92.33084415124044 55.75634734961193 90.53998315056361 53.9654863489351 90.53998315056361 51.75634734961193 C 90.53998315056361 49.547208350288756 92.33084415124044 47.75634734961193 94.53998315056361 47.75634734961193 C 96.74912214988679 47.75634734961193 98.53998315056361 49.547208350288756 98.53998315056361 51.75634734961193 Z" stroke-opacity="1" stroke-linecap="round" stroke-linejoin="round" stroke-miterlimit="10"/><text fill="rgb(0,0,0)" stroke="none" font-family="geogebra-sans-serif, sans-serif" font-size="16px" font-style="normal" font-weight="normal" text-decoration="normal" x="67" y="38" text-anchor="start" dominant-baseline="alphabetic" fill-opacity="1">P</text><text fill="rgb(0,0,0)" stroke="none" font-family="geogebra-sans-serif, sans-serif" font-size="16px" font-style="normal" font-weight="normal" text-decoration="normal" x="67" y="38" text-anchor="start" dominant-baseline="alphabetic" fill-opacity="1">P</text><text fill="rgb(0,0,0)" stroke="none" font-family="geogebra-sans-serif, sans-serif" font-size="14px" font-style="normal" font-weight="normal" text-decoration="normal" x="78" y="45" text-anchor="start" dominant-baseline="alphabetic" fill-opacity="1">7</text><text fill="rgb(0,0,0)" stroke="none" font-family="geogebra-sans-serif, sans-serif" font-size="14px" font-style="normal" font-weight="normal" text-decoration="normal" x="78" y="45" text-anchor="start" dominant-baseline="alphabetic" fill-opacity="1">7</text><path fill="rgb(68,68,68)" stroke="none" paint-order="stroke fill markers" d=" M 367.38686233444884 589.4501057173826 C 367.38686233444884 591.6592447167058 365.596001333772 593.4501057173826 363.38686233444884 593.4501057173826 C 361.1777233351257 593.4501057173826 359.38686233444884 591.6592447167058 359.38686233444884 589.4501057173826 C 359.38686233444884 587.2409667180594 361.1777233351257 585.4501057173826 363.38686233444884 585.4501057173826 C 365.596001333772 585.4501057173826 367.38686233444884 587.2409667180594 367.38686233444884 589.4501057173826 Z" fill-opacity="1"/><path fill="none" stroke="rgb(0,0,0)" paint-order="fill stroke markers" d=" M 367.38686233444884 589.4501057173826 C 367.38686233444884 591.6592447167058 365.596001333772 593.4501057173826 363.38686233444884 593.4501057173826 C 361.1777233351257 593.4501057173826 359.38686233444884 591.6592447167058 359.38686233444884 589.4501057173826 C 359.38686233444884 587.2409667180594 361.1777233351257 585.4501057173826 363.38686233444884 585.4501057173826 C 365.596001333772 585.4501057173826 367.38686233444884 587.2409667180594 367.38686233444884 589.4501057173826 Z" stroke-opacity="1" stroke-linecap="round" stroke-linejoin="round" stroke-miterlimit="10"/><text fill="rgb(68,68,68)" stroke="none" font-family="geogebra-sans-serif, sans-serif" font-size="16px" font-style="normal" font-weight="normal" text-decoration="normal" x="372" y="607" text-anchor="start" dominant-baseline="alphabetic" fill-opacity="1">P</text><text fill="rgb(68,68,68)" stroke="none" font-family="geogebra-sans-serif, sans-serif" font-size="16px" font-style="normal" font-weight="normal" text-decoration="normal" x="372" y="607" text-anchor="start" dominant-baseline="alphabetic" fill-opacity="1">P</text><text fill="rgb(68,68,68)" stroke="none" font-family="geogebra-sans-serif, sans-serif" font-size="14px" font-style="normal" font-weight="normal" text-decoration="normal" x="383" y="614" text-anchor="start" dominant-baseline="alphabetic" fill-opacity="1">2</text><text fill="rgb(68,68,68)" stroke="none" font-family="geogebra-sans-serif, sans-serif" font-size="14px" font-style="normal" font-weight="normal" text-decoration="normal" x="383" y="614" text-anchor="start" dominant-baseline="alphabetic" fill-opacity="1">2</text><path fill="rgb(68,68,68)" stroke="none" paint-order="stroke fill markers" d=" M 636.233741518334 320.60322653349726 C 636.233741518334 322.8123655328204 634.4428805176572 324.60322653349726 632.233741518334 324.60322653349726 C 630.0246025190108 324.60322653349726 628.233741518334 322.8123655328204 628.233741518334 320.60322653349726 C 628.233741518334 318.3940875341741 630.0246025190108 316.60322653349726 632.233741518334 316.60322653349726 C 634.4428805176572 316.60322653349726 636.233741518334 318.3940875341741 636.233741518334 320.60322653349726 Z" fill-opacity="1"/><path fill="none" stroke="rgb(0,0,0)" paint-order="fill stroke markers" d=" M 636.233741518334 320.60322653349726 C 636.233741518334 322.8123655328204 634.4428805176572 324.60322653349726 632.233741518334 324.60322653349726 C 630.0246025190108 324.60322653349726 628.233741518334 322.8123655328204 628.233741518334 320.60322653349726 C 628.233741518334 318.3940875341741 630.0246025190108 316.60322653349726 632.233741518334 316.60322653349726 C 634.4428805176572 316.60322653349726 636.233741518334 318.3940875341741 636.233741518334 320.60322653349726 Z" stroke-opacity="1" stroke-linecap="round" stroke-linejoin="round" stroke-miterlimit="10"/><text fill="rgb(68,68,68)" stroke="none" font-family="geogebra-sans-serif, sans-serif" font-size="16px" font-style="normal" font-weight="normal" text-decoration="normal" x="642" y="308" text-anchor="start" dominant-baseline="alphabetic" fill-opacity="1">P</text><text fill="rgb(68,68,68)" stroke="none" font-family="geogebra-sans-serif, sans-serif" font-size="16px" font-style="normal" font-weight="normal" text-decoration="normal" x="642" y="308" text-anchor="start" dominant-baseline="alphabetic" fill-opacity="1">P</text><text fill="rgb(68,68,68)" stroke="none" font-family="geogebra-sans-serif, sans-serif" font-size="14px" font-style="normal" font-weight="normal" text-decoration="normal" x="653" y="315" text-anchor="start" dominant-baseline="alphabetic" fill-opacity="1">4</text><text fill="rgb(68,68,68)" stroke="none" font-family="geogebra-sans-serif, sans-serif" font-size="14px" font-style="normal" font-weight="normal" text-decoration="normal" x="653" y="315" text-anchor="start" dominant-baseline="alphabetic" fill-opacity="1">4</text><path fill="rgb(68,68,68)" stroke="none" paint-order="stroke fill markers" d=" M 367.38686233444884 51.75634734961193 C 367.38686233444884 53.9654863489351 365.596001333772 55.75634734961193 363.38686233444884 55.75634734961193 C 361.1777233351257 55.75634734961193 359.38686233444884 53.9654863489351 359.38686233444884 51.75634734961193 C 359.38686233444884 49.547208350288756 361.1777233351257 47.75634734961193 363.38686233444884 47.75634734961193 C 365.596001333772 47.75634734961193 367.38686233444884 49.547208350288756 367.38686233444884 51.75634734961193 Z" fill-opacity="1"/><path fill="none" stroke="rgb(0,0,0)" paint-order="fill stroke markers" d=" M 367.38686233444884 51.75634734961193 C 367.38686233444884 53.9654863489351 365.596001333772 55.75634734961193 363.38686233444884 55.75634734961193 C 361.1777233351257 55.75634734961193 359.38686233444884 53.9654863489351 359.38686233444884 51.75634734961193 C 359.38686233444884 49.547208350288756 361.1777233351257 47.75634734961193 363.38686233444884 47.75634734961193 C 365.596001333772 47.75634734961193 367.38686233444884 49.547208350288756 367.38686233444884 51.75634734961193 Z" stroke-opacity="1" stroke-linecap="round" stroke-linejoin="round" stroke-miterlimit="10"/><text fill="rgb(68,68,68)" stroke="none" font-family="geogebra-sans-serif, sans-serif" font-size="16px" font-style="normal" font-weight="normal" text-decoration="normal" x="367" y="44" text-anchor="start" dominant-baseline="alphabetic" fill-opacity="1">P</text><text fill="rgb(68,68,68)" stroke="none" font-family="geogebra-sans-serif, sans-serif" font-size="16px" font-style="normal" font-weight="normal" text-decoration="normal" x="367" y="44" text-anchor="start" dominant-baseline="alphabetic" fill-opacity="1">P</text><text fill="rgb(68,68,68)" stroke="none" font-family="geogebra-sans-serif, sans-serif" font-size="14px" font-style="normal" font-weight="normal" text-decoration="normal" x="378" y="51" text-anchor="start" dominant-baseline="alphabetic" fill-opacity="1">6</text><text fill="rgb(68,68,68)" stroke="none" font-family="geogebra-sans-serif, sans-serif" font-size="14px" font-style="normal" font-weight="normal" text-decoration="normal" x="378" y="51" text-anchor="start" dominant-baseline="alphabetic" fill-opacity="1">6</text><path fill="rgb(68,68,68)" stroke="none" paint-order="stroke fill markers" d=" M 98.53998315056361 320.60322653349726 C 98.53998315056361 322.8123655328204 96.74912214988679 324.60322653349726 94.53998315056361 324.60322653349726 C 92.33084415124044 324.60322653349726 90.53998315056361 322.8123655328204 90.53998315056361 320.60322653349726 C 90.53998315056361 318.3940875341741 92.33084415124044 316.60322653349726 94.53998315056361 316.60322653349726 C 96.74912214988679 316.60322653349726 98.53998315056361 318.3940875341741 98.53998315056361 320.60322653349726 Z" fill-opacity="1"/><path fill="none" stroke="rgb(0,0,0)" paint-order="fill stroke markers" d=" M 98.53998315056361 320.60322653349726 C 98.53998315056361 322.8123655328204 96.74912214988679 324.60322653349726 94.53998315056361 324.60322653349726 C 92.33084415124044 324.60322653349726 90.53998315056361 322.8123655328204 90.53998315056361 320.60322653349726 C 90.53998315056361 318.3940875341741 92.33084415124044 316.60322653349726 94.53998315056361 316.60322653349726 C 96.74912214988679 316.60322653349726 98.53998315056361 318.3940875341741 98.53998315056361 320.60322653349726 Z" stroke-opacity="1" stroke-linecap="round" stroke-linejoin="round" stroke-miterlimit="10"/><text fill="rgb(68,68,68)" stroke="none" font-family="geogebra-sans-serif, sans-serif" font-size="16px" font-style="normal" font-weight="normal" text-decoration="normal" x="68" y="310" text-anchor="start" dominant-baseline="alphabetic" fill-opacity="1">P</text><text fill="rgb(68,68,68)" stroke="none" font-family="geogebra-sans-serif, sans-serif" font-size="16px" font-style="normal" font-weight="normal" text-decoration="normal" x="68" y="310" text-anchor="start" dominant-baseline="alphabetic" fill-opacity="1">P</text><text fill="rgb(68,68,68)" stroke="none" font-family="geogebra-sans-serif, sans-serif" font-size="14px" font-style="normal" font-weight="normal" text-decoration="normal" x="79" y="317" text-anchor="start" dominant-baseline="alphabetic" fill-opacity="1">8</text><text fill="rgb(68,68,68)" stroke="none" font-family="geogebra-sans-serif, sans-serif" font-size="14px" font-style="normal" font-weight="normal" text-decoration="normal" x="79" y="317" text-anchor="start" dominant-baseline="alphabetic" fill-opacity="1">8</text></g></g></svg>