<svg version="1.1" xmlns="http://www.w3.org/2000/svg" xmlns:xlink="http://www.w3.org/1999/xlink" width="669" height="621"><defs><clipPath id="ZHlTbPMknXiS"><path fill="none" stroke="none" d=" M 0 0 L 669 0 L 669 621 L 0 621 L 0 0 Z"/></clipPath></defs><g transform="scale(1,1)" clip-path="url(#ZHlTbPMknXiS)"><g><rect fill="rgb(255,255,255)" stroke="none" x="0" y="0" width="669" height="621" fill-opacity="1"/><path fill="none" stroke="rgb(0,0,0)" paint-order="fill stroke markers" d=" M 322.5 2.5 L 322.5 621.5" stroke-opacity="1" stroke-miterlimit="10"/><path fill="none" stroke="rgb(0,0,0)" paint-order="fill stroke markers" d=" M 322.5 1.5 L 318.5 5.5" stroke-opacity="1" stroke-miterlimit="10"/><path fill="none" stroke="rgb(0,0,0)" paint-order="fill stroke markers" d=" M 322.5 1.5 L 326.5 5.5" stroke-opacity="1" stroke-miterlimit="10"/><path fill="none" stroke="rgb(0,0,0)" paint-order="fill stroke markers" d=" M 0.5 307.5 L 667.5 307.5" stroke-opacity="1" stroke-miterlimit="10"/><path fill="none" stroke="rgb(0,0,0)" paint-order="fill stroke markers" d=" M 668.5 307.5 L 664.5 303.5" stroke-opacity="1" stroke-miterlimit="10"/><path fill="none" stroke="rgb(0,0,0)" paint-order="fill stroke markers" d=" M 668.5 307.5 L 664.5 311.5" stroke-opacity="1" stroke-miterlimit="10"/><text fill="rgb(0,0,0)" stroke="none" font-family="geogebra-sans-serif, sans-serif" font-size="12px" font-style="normal" font-weight="normal" text-decoration="normal" x="46" y="323" text-anchor="start" dominant-baseline="alphabetic" fill-opacity="1">–1</text><text fill="rgb(0,0,0)" stroke="none" font-family="geogebra-sans-serif, sans-serif" font-size="12px" font-style="normal" font-weight="normal" text-decoration="normal" x="46" y="323" text-anchor="start" dominant-baseline="alphabetic" fill-opacity="1">–1</text><path fill="none" stroke="rgb(0,0,0)" paint-order="fill stroke markers" d=" M 51.5 307.5 L 51.5 310.5" stroke-opacity="1" stroke-miterlimit="10"/><text fill="rgb(0,0,0)" stroke="none" font-family="geogebra-sans-serif, sans-serif" font-size="12px" font-style="normal" font-weight="normal" text-decoration="normal" x="175" y="323" text-anchor="start" dominant-baseline="alphabetic" fill-opacity="1">–0.5</text><text fill="rgb(0,0,0)" stroke="none" font-family="geogebra-sans-serif, sans-serif" font-size="12px" font-style="normal" font-weight="normal" text-decoration="normal" x="175" y="323" text-anchor="start" dominant-baseline="alphabetic" fill-opacity="1">–0.5</text><path fill="none" stroke="rgb(0,0,0)" paint-order="fill stroke markers" d=" M 186.5 307.5 L 186.5 310.5" stroke-opacity="1" stroke-miterlimit="10"/><path fill="none" stroke="rgb(0,0,0)" paint-order="fill stroke markers" d=" M 322.5 307.5 L 322.5 310.5" stroke-opacity="1" stroke-miterlimit="10"/><text fill="rgb(0,0,0)" stroke="none" font-family="geogebra-sans-serif, sans-serif" font-size="12px" font-style="normal" font-weight="normal" text-decoration="normal" x="449" y="323" text-anchor="start" dominant-baseline="alphabetic" fill-opacity="1">0.5</text><text fill="rgb(0,0,0)" stroke="none" font-family="geogebra-sans-serif, sans-serif" font-size="12px" font-style="normal" font-weight="normal" text-decoration="normal" x="449" y="323" text-anchor="start" dominant-baseline="alphabetic" fill-opacity="1">0.5</text><path fill="none" stroke="rgb(0,0,0)" paint-order="fill stroke markers" d=" M 457.5 307.5 L 457.5 310.5" stroke-opacity="1" stroke-miterlimit="10"/><text fill="rgb(0,0,0)" stroke="none" font-family="geogebra-sans-serif, sans-serif" font-size="12px" font-style="normal" font-weight="normal" text-decoration="normal" x="591" y="323" text-anchor="start" dominant-baseline="alphabetic" fill-opacity="1">1</text><text fill="rgb(0,0,0)" stroke="none" font-family="geogebra-sans-serif, sans-serif" font-size="12px" font-style="normal" font-weight="normal" text-decoration="normal" x="591" y="323" text-anchor="start" dominant-baseline="alphabetic" fill-opacity="1">1</text><path fill="none" stroke="rgb(0,0,0)" paint-order="fill stroke markers" d=" M 593.5 307.5 L 593.5 310.5" stroke-opacity="1" stroke-miterlimit="10"/><path fill="none" stroke="rgb(0,0,0)" paint-order="fill stroke markers" d=" M 319.5 578.5 L 322.5 578.5" stroke-opacity="1" stroke-miterlimit="10"/><path fill="none" stroke="rgb(0,0,0)" paint-order="fill stroke markers" d=" M 319.5 443.5 L 322.5 443.5" stroke-opacity="1" stroke-miterlimit="10"/><path fill="none" stroke="rgb(0,0,0)" paint-order="fill stroke markers" d=" M 319.5 172.5 L 322.5 172.5" stroke-opacity="1" stroke-miterlimit="10"/><path fill="none" stroke="rgb(0,0,0)" paint-order="fill stroke markers" d=" M 319.5 37.5 L 322.5 37.5" stroke-opacity="1" stroke-miterlimit="10"/><text fill="rgb(0,0,0)" stroke="none" font-family="geogebra-sans-serif, sans-serif" font-size="12px" font-style="normal" font-weight="normal" text-decoration="normal" x="301" y="583" text-anchor="start" dominant-baseline="alphabetic" fill-opacity="1">–1</text><text fill="rgb(0,0,0)" stroke="none" font-family="geogebra-sans-serif, sans-serif" font-size="12px" font-style="normal" font-weight="normal" text-decoration="normal" x="301" y="583" text-anchor="start" dominant-baseline="alphabetic" fill-opacity="1">–1</text><text fill="rgb(0,0,0)" stroke="none" font-family="geogebra-sans-serif, sans-serif" font-size="12px" font-style="normal" font-weight="normal" text-decoration="normal" x="291" y="448" text-anchor="start" dominant-baseline="alphabetic" fill-opacity="1">–0.5</text><text fill="rgb(0,0,0)" stroke="none" font-family="geogebra-sans-serif, sans-serif" font-size="12px" font-style="normal" font-weight="normal" text-decoration="normal" x="291" y="448" text-anchor="start" dominant-baseline="alphabetic" fill-opacity="1">–0.5</text><text fill="rgb(0,0,0)" stroke="none" font-family="geogebra-sans-serif, sans-serif" font-size="12px" font-style="normal" font-weight="normal" text-decoration="normal" x="298" y="177" text-anchor="start" dominant-baseline="alphabetic" fill-opacity="1">0.5</text><text fill="rgb(0,0,0)" stroke="none" font-family="geogebra-sans-serif, sans-serif" font-size="12px" font-style="normal" font-weight="normal" text-decoration="normal" x="298" y="177" text-anchor="start" dominant-baseline="alphabetic" fill-opacity="1">0.5</text><text fill="rgb(0,0,0)" stroke="none" font-family="geogebra-sans-serif, sans-serif" font-size="12px" font-style="normal" font-weight="normal" text-decoration="normal" x="308" y="42" text-anchor="start" dominant-baseline="alphabetic" fill-opacity="1">1</text><text fill="rgb(0,0,0)" stroke="none" font-family="geogebra-sans-serif, sans-serif" font-size="12px" font-style="normal" font-weight="normal" text-decoration="normal" x="308" y="42" text-anchor="start" dominant-baseline="alphabetic" fill-opacity="1">1</text><text fill="rgb(0,0,0)" stroke="none" font-family="geogebra-sans-serif, sans-serif" font-size="12px" font-style="normal" font-weight="normal" text-decoration="normal" x="308" y="323" text-anchor="start" dominant-baseline="alphabetic" fill-opacity="1">0</text><text fill="rgb(0,0,0)" stroke="none" font-family="geogebra-sans-serif, sans-serif" font-size="12px" font-style="normal" font-weight="normal" text-decoration="normal" x="308" y="323" text-anchor="start" dominant-baseline="alphabetic" fill-opacity="1">0</text><path fill="rgb(128,128,128)" stroke="none" paint-order="stroke fill markers" fill-rule="evenodd" d=" M 51.636917067331524 578.5215333138146 L 593.0343865575841 578.5215333138146 L 593.0343865575841 37.1240638235609 L 51.636917067331524 37.1240638235609 Z" fill-opacity="0.09803921568627451"/><path fill="none" stroke="rgb(128,128,128)" paint-order="fill stroke markers" d=" M 51.636917067331524 578.5215333138146 L 593.0343865575841 578.5215333138146" stroke-opacity="0.6980392156862745" stroke-linecap="round" stroke-linejoin="round" stroke-miterlimit="10" stroke-width="2.5"/><path fill="none" stroke="rgb(128,128,128)" paint-order="fill stroke markers" d=" M 593.0343865575841 578.5215333138146 L 593.0343865575841 37.1240638235609" stroke-opacity="0.6980392156862745" stroke-linecap="round" stroke-linejoin="round" stroke-miterlimit="10" stroke-width="2.5"/><path fill="none" stroke="rgb(128,128,128)" paint-order="fill stroke markers" d=" M 593.0343865575841 37.1240638235609 L 51.636917067331524 37.1240638235609" stroke-opacity="0.6980392156862745" stroke-linecap="round" stroke-linejoin="round" stroke-miterlimit="10" stroke-width="2.5"/><path fill="none" stroke="rgb(128,128,128)" paint-order="fill stroke markers" d=" M 51.636917067331524 37.1240638235609 L 51.636917067331524 578.5215333138146" stroke-opacity="0.6980392156862745" stroke-linecap="round" stroke-linejoin="round" stroke-miterlimit="10" stroke-width="2.5"/><path fill="rgb(128,128,128)" stroke="none" paint-order="stroke fill markers" d=" M 56.636917067331524 578.5215333138146 C 56.636917067331524 581.2829570629686 54.39834081648549 583.5215333138146 51.636917067331524 583.5215333138146 C 48.875493318177554 583.5215333138146 46.636917067331524 581.2829570629686 46.636917067331524 578.5215333138146 C 46.636917067331524 575.7601095646606 48.875493318177554 573.5215333138146 51.636917067331524 573.5215333138146 C 54.39834081648549 573.5215333138146 56.636917067331524 575.7601095646606 56.636917067331524 578.5215333138146 Z" fill-opacity="1"/><path fill="none" stroke="rgb(0,0,0)" paint-order="fill stroke markers" d=" M 56.636917067331524 578.5215333138146 C 56.636917067331524 581.2829570629686 54.39834081648549 583.5215333138146 51.636917067331524 583.5215333138146 C 48.875493318177554 583.5215333138146 46.636917067331524 581.2829570629686 46.636917067331524 578.5215333138146 C 46.636917067331524 575.7601095646606 48.875493318177554 573.5215333138146 51.636917067331524 573.5215333138146 C 54.39834081648549 573.5215333138146 56.636917067331524 575.7601095646606 56.636917067331524 578.5215333138146 Z" stroke-opacity="1" stroke-linecap="round" stroke-linejoin="round" stroke-miterlimit="10"/><path fill="rgb(128,128,128)" stroke="none" paint-order="stroke fill markers" d=" M 598.0343865575841 578.5215333138146 C 598.0343865575841 581.2829570629686 595.7958103067381 583.5215333138146 593.0343865575841 583.5215333138146 C 590.2729628084301 583.5215333138146 588.0343865575841 581.2829570629686 588.0343865575841 578.5215333138146 C 588.0343865575841 575.7601095646606 590.2729628084301 573.5215333138146 593.0343865575841 573.5215333138146 C 595.7958103067381 573.5215333138146 598.0343865575841 575.7601095646606 598.0343865575841 578.5215333138146 Z" fill-opacity="1"/><path fill="none" stroke="rgb(0,0,0)" paint-order="fill stroke markers" d=" M 598.0343865575841 578.5215333138146 C 598.0343865575841 581.2829570629686 595.7958103067381 583.5215333138146 593.0343865575841 583.5215333138146 C 590.2729628084301 583.5215333138146 588.0343865575841 581.2829570629686 588.0343865575841 578.5215333138146 C 588.0343865575841 575.7601095646606 590.2729628084301 573.5215333138146 593.0343865575841 573.5215333138146 C 595.7958103067381 573.5215333138146 598.0343865575841 575.7601095646606 598.0343865575841 578.5215333138146 Z" stroke-opacity="1" stroke-linecap="round" stroke-linejoin="round" stroke-miterlimit="10"/><path fill="rgb(128,128,128)" stroke="none" paint-order="stroke fill markers" d=" M 598.0343865575841 37.1240638235609 C 598.0343865575841 39.885487572714865 595.7958103067381 42.1240638235609 593.0343865575841 42.1240638235609 C 590.2729628084301 42.1240638235609 588.0343865575841 39.885487572714865 588.0343865575841 37.1240638235609 C 588.0343865575841 34.36264007440693 590.2729628084301 32.1240638235609 593.0343865575841 32.1240638235609 C 595.7958103067381 32.1240638235609 598.0343865575841 34.36264007440693 598.0343865575841 37.1240638235609 Z" fill-opacity="1"/><path fill="none" stroke="rgb(0,0,0)" paint-order="fill stroke markers" d=" M 598.0343865575841 37.1240638235609 C 598.0343865575841 39.885487572714865 595.7958103067381 42.1240638235609 593.0343865575841 42.1240638235609 C 590.2729628084301 42.1240638235609 588.0343865575841 39.885487572714865 588.0343865575841 37.1240638235609 C 588.0343865575841 34.36264007440693 590.2729628084301 32.1240638235609 593.0343865575841 32.1240638235609 C 595.7958103067381 32.1240638235609 598.0343865575841 34.36264007440693 598.0343865575841 37.1240638235609 Z" stroke-opacity="1" stroke-linecap="round" stroke-linejoin="round" stroke-miterlimit="10"/><path fill="rgb(128,128,128)" stroke="none" paint-order="stroke fill markers" d=" M 56.636917067331524 37.1240638235609 C 56.636917067331524 39.885487572714865 54.39834081648549 42.1240638235609 51.636917067331524 42.1240638235609 C 48.875493318177554 42.1240638235609 46.636917067331524 39.885487572714865 46.636917067331524 37.1240638235609 C 46.636917067331524 34.36264007440693 48.875493318177554 32.1240638235609 51.636917067331524 32.1240638235609 C 54.39834081648549 32.1240638235609 56.636917067331524 34.36264007440693 56.636917067331524 37.1240638235609 Z" fill-opacity="1"/><path fill="none" stroke="rgb(0,0,0)" paint-order="fill stroke markers" d=" M 56.636917067331524 37.1240638235609 C 56.636917067331524 39.885487572714865 54.39834081648549 42.1240638235609 51.636917067331524 42.1240638235609 C 48.875493318177554 42.1240638235609 46.636917067331524 39.885487572714865 46.636917067331524 37.1240638235609 C 46.636917067331524 34.36264007440693 48.875493318177554 32.1240638235609 51.636917067331524 32.1240638235609 C 54.39834081648549 32.1240638235609 56.636917067331524 34.36264007440693 56.636917067331524 37.1240638235609 Z" stroke-opacity="1" stroke-linecap="round" stroke-linejoin="round" stroke-miterlimit="10"/><path fill="rgb(204,0,0)" stroke="none" paint-order="stroke fill markers" d=" M 327.3356518124578 307.82279856868774 C 327.3356518124578 310.5842223178417 325.09707556161175 312.82279856868774 322.3356518124578 312.82279856868774 C 319.57422806330385 312.82279856868774 317.3356518124578 310.5842223178417 317.3356518124578 307.82279856868774 C 317.3356518124578 305.0613748195338 319.57422806330385 302.82279856868774 322.3356518124578 302.82279856868774 C 325.09707556161175 302.82279856868774 327.3356518124578 305.0613748195338 327.3356518124578 307.82279856868774 Z" fill-opacity="1"/><path fill="none" stroke="rgb(0,0,0)" paint-order="fill stroke markers" d=" M 327.3356518124578 307.82279856868774 C 327.3356518124578 310.5842223178417 325.09707556161175 312.82279856868774 322.3356518124578 312.82279856868774 C 319.57422806330385 312.82279856868774 317.3356518124578 310.5842223178417 317.3356518124578 307.82279856868774 C 317.3356518124578 305.0613748195338 319.57422806330385 302.82279856868774 322.3356518124578 302.82279856868774 C 325.09707556161175 302.82279856868774 327.3356518124578 305.0613748195338 327.3356518124578 307.82279856868774 Z" stroke-opacity="1" stroke-linecap="round" stroke-linejoin="round" stroke-miterlimit="10"/><g transform="scale(19,19)"><g transform="translate(17.57894736842105,15.749263157894736)"><path fill="rgb(255,0,0)" stroke="none" paint-order="stroke fill markers" d=" M 0.028 -0.165 L 0.028 -0.196 L 0.335 -0.665 Q 0.343 -0.677 0.355 -0.677 Q 0.369 -0.677 0.371 -0.666 L 0.371 -0.651 L 0.371 -0.196 L 0.47100000000000003 -0.196 L 0.47100000000000003 -0.165 L 0.371 -0.165 L 0.371 -0.078 Q 0.371 -0.047 0.383 -0.04 Q 0.397 -0.031 0.447 -0.031 L 0.468 -0.031 L 0.468 0 Q 0.427 -0.003 0.332 -0.003 Q 0.23800000000000002 -0.003 0.197 0 L 0.197 -0.031 L 0.218 -0.031 Q 0.28 -0.031 0.29 -0.048 Q 0.294 -0.055 0.294 -0.078 L 0.294 -0.165 L 0.028 -0.165 M 0.3 -0.196 L 0.3 -0.5690000000000001 L 0.056 -0.196 L 0.3 -0.196 Z"/></g></g></g></g></svg>