<svg version="1.1" xmlns="http://www.w3.org/2000/svg" xmlns:xlink="http://www.w3.org/1999/xlink" width="669" height="621"><defs><clipPath id="TnvpGOWeqpze"><path fill="none" stroke="none" d=" M 0 0 L 669 0 L 669 621 L 0 621 L 0 0 Z"/></clipPath></defs><g transform="scale(1,1)" clip-path="url(#TnvpGOWeqpze)"><g><rect fill="rgb(255,255,255)" stroke="none" x="0" y="0" width="669" height="621" fill-opacity="1"/><path fill="none" stroke="rgb(0,0,0)" paint-order="fill stroke markers" d=" M 327.5 2.5 L 327.5 621.5" stroke-opacity="1" stroke-miterlimit="10"/><path fill="none" stroke="rgb(0,0,0)" paint-order="fill stroke markers" d=" M 327.5 1.5 L 323.5 5.5" stroke-opacity="1" stroke-miterlimit="10"/><path fill="none" stroke="rgb(0,0,0)" paint-order="fill stroke markers" d=" M 327.5 1.5 L 331.5 5.5" stroke-opacity="1" stroke-miterlimit="10"/><path fill="none" stroke="rgb(0,0,0)" paint-order="fill stroke markers" d=" M 0.5 307.5 L 667.5 307.5" stroke-opacity="1" stroke-miterlimit="10"/><path fill="none" stroke="rgb(0,0,0)" paint-order="fill stroke markers" d=" M 668.5 307.5 L 664.5 303.5" stroke-opacity="1" stroke-miterlimit="10"/><path fill="none" stroke="rgb(0,0,0)" paint-order="fill stroke markers" d=" M 668.5 307.5 L 664.5 311.5" stroke-opacity="1" stroke-miterlimit="10"/><text fill="rgb(0,0,0)" stroke="none" font-family="geogebra-sans-serif, sans-serif" font-size="12px" font-style="normal" font-weight="normal" text-decoration="normal" x="51" y="323" text-anchor="start" dominant-baseline="alphabetic" fill-opacity="1">–1</text><text fill="rgb(0,0,0)" stroke="none" font-family="geogebra-sans-serif, sans-serif" font-size="12px" font-style="normal" font-weight="normal" text-decoration="normal" x="51" y="323" text-anchor="start" dominant-baseline="alphabetic" fill-opacity="1">–1</text><path fill="none" stroke="rgb(0,0,0)" paint-order="fill stroke markers" d=" M 56.5 307.5 L 56.5 310.5" stroke-opacity="1" stroke-miterlimit="10"/><text fill="rgb(0,0,0)" stroke="none" font-family="geogebra-sans-serif, sans-serif" font-size="12px" font-style="normal" font-weight="normal" text-decoration="normal" x="180" y="323" text-anchor="start" dominant-baseline="alphabetic" fill-opacity="1">–0.5</text><text fill="rgb(0,0,0)" stroke="none" font-family="geogebra-sans-serif, sans-serif" font-size="12px" font-style="normal" font-weight="normal" text-decoration="normal" x="180" y="323" text-anchor="start" dominant-baseline="alphabetic" fill-opacity="1">–0.5</text><path fill="none" stroke="rgb(0,0,0)" paint-order="fill stroke markers" d=" M 191.5 307.5 L 191.5 310.5" stroke-opacity="1" stroke-miterlimit="10"/><path fill="none" stroke="rgb(0,0,0)" paint-order="fill stroke markers" d=" M 327.5 307.5 L 327.5 310.5" stroke-opacity="1" stroke-miterlimit="10"/><text fill="rgb(0,0,0)" stroke="none" font-family="geogebra-sans-serif, sans-serif" font-size="12px" font-style="normal" font-weight="normal" text-decoration="normal" x="454" y="323" text-anchor="start" dominant-baseline="alphabetic" fill-opacity="1">0.5</text><text fill="rgb(0,0,0)" stroke="none" font-family="geogebra-sans-serif, sans-serif" font-size="12px" font-style="normal" font-weight="normal" text-decoration="normal" x="454" y="323" text-anchor="start" dominant-baseline="alphabetic" fill-opacity="1">0.5</text><path fill="none" stroke="rgb(0,0,0)" paint-order="fill stroke markers" d=" M 462.5 307.5 L 462.5 310.5" stroke-opacity="1" stroke-miterlimit="10"/><text fill="rgb(0,0,0)" stroke="none" font-family="geogebra-sans-serif, sans-serif" font-size="12px" font-style="normal" font-weight="normal" text-decoration="normal" x="596" y="323" text-anchor="start" dominant-baseline="alphabetic" fill-opacity="1">1</text><text fill="rgb(0,0,0)" stroke="none" font-family="geogebra-sans-serif, sans-serif" font-size="12px" font-style="normal" font-weight="normal" text-decoration="normal" x="596" y="323" text-anchor="start" dominant-baseline="alphabetic" fill-opacity="1">1</text><path fill="none" stroke="rgb(0,0,0)" paint-order="fill stroke markers" d=" M 598.5 307.5 L 598.5 310.5" stroke-opacity="1" stroke-miterlimit="10"/><path fill="none" stroke="rgb(0,0,0)" paint-order="fill stroke markers" d=" M 324.5 578.5 L 327.5 578.5" stroke-opacity="1" stroke-miterlimit="10"/><path fill="none" stroke="rgb(0,0,0)" paint-order="fill stroke markers" d=" M 324.5 443.5 L 327.5 443.5" stroke-opacity="1" stroke-miterlimit="10"/><path fill="none" stroke="rgb(0,0,0)" paint-order="fill stroke markers" d=" M 324.5 172.5 L 327.5 172.5" stroke-opacity="1" stroke-miterlimit="10"/><path fill="none" stroke="rgb(0,0,0)" paint-order="fill stroke markers" d=" M 324.5 37.5 L 327.5 37.5" stroke-opacity="1" stroke-miterlimit="10"/><text fill="rgb(0,0,0)" stroke="none" font-family="geogebra-sans-serif, sans-serif" font-size="12px" font-style="normal" font-weight="normal" text-decoration="normal" x="306" y="583" text-anchor="start" dominant-baseline="alphabetic" fill-opacity="1">–1</text><text fill="rgb(0,0,0)" stroke="none" font-family="geogebra-sans-serif, sans-serif" font-size="12px" font-style="normal" font-weight="normal" text-decoration="normal" x="306" y="583" text-anchor="start" dominant-baseline="alphabetic" fill-opacity="1">–1</text><text fill="rgb(0,0,0)" stroke="none" font-family="geogebra-sans-serif, sans-serif" font-size="12px" font-style="normal" font-weight="normal" text-decoration="normal" x="296" y="448" text-anchor="start" dominant-baseline="alphabetic" fill-opacity="1">–0.5</text><text fill="rgb(0,0,0)" stroke="none" font-family="geogebra-sans-serif, sans-serif" font-size="12px" font-style="normal" font-weight="normal" text-decoration="normal" x="296" y="448" text-anchor="start" dominant-baseline="alphabetic" fill-opacity="1">–0.5</text><text fill="rgb(0,0,0)" stroke="none" font-family="geogebra-sans-serif, sans-serif" font-size="12px" font-style="normal" font-weight="normal" text-decoration="normal" x="303" y="177" text-anchor="start" dominant-baseline="alphabetic" fill-opacity="1">0.5</text><text fill="rgb(0,0,0)" stroke="none" font-family="geogebra-sans-serif, sans-serif" font-size="12px" font-style="normal" font-weight="normal" text-decoration="normal" x="303" y="177" text-anchor="start" dominant-baseline="alphabetic" fill-opacity="1">0.5</text><text fill="rgb(0,0,0)" stroke="none" font-family="geogebra-sans-serif, sans-serif" font-size="12px" font-style="normal" font-weight="normal" text-decoration="normal" x="313" y="42" text-anchor="start" dominant-baseline="alphabetic" fill-opacity="1">1</text><text fill="rgb(0,0,0)" stroke="none" font-family="geogebra-sans-serif, sans-serif" font-size="12px" font-style="normal" font-weight="normal" text-decoration="normal" x="313" y="42" text-anchor="start" dominant-baseline="alphabetic" fill-opacity="1">1</text><text fill="rgb(0,0,0)" stroke="none" font-family="geogebra-sans-serif, sans-serif" font-size="12px" font-style="normal" font-weight="normal" text-decoration="normal" x="313" y="323" text-anchor="start" dominant-baseline="alphabetic" fill-opacity="1">0</text><text fill="rgb(0,0,0)" stroke="none" font-family="geogebra-sans-serif, sans-serif" font-size="12px" font-style="normal" font-weight="normal" text-decoration="normal" x="313" y="323" text-anchor="start" dominant-baseline="alphabetic" fill-opacity="1">0</text><path fill="rgb(128,128,128)" stroke="none" paint-order="stroke fill markers" fill-rule="evenodd" d=" M 56.636917067331694 578.5215333138146 L 598.0343865575842 578.5215333138146 L 598.0343865575842 37.1240638235609 L 56.636917067331694 37.1240638235609 Z" fill-opacity="0.09803921568627451"/><path fill="none" stroke="rgb(128,128,128)" paint-order="fill stroke markers" d=" M 56.636917067331694 578.5215333138146 L 598.0343865575842 578.5215333138146" stroke-opacity="0.6980392156862745" stroke-linecap="round" stroke-linejoin="round" stroke-miterlimit="10" stroke-width="2.5"/><path fill="none" stroke="rgb(128,128,128)" paint-order="fill stroke markers" d=" M 598.0343865575842 578.5215333138146 L 598.0343865575842 37.1240638235609" stroke-opacity="0.6980392156862745" stroke-linecap="round" stroke-linejoin="round" stroke-miterlimit="10" stroke-width="2.5"/><path fill="none" stroke="rgb(128,128,128)" paint-order="fill stroke markers" d=" M 598.0343865575842 37.1240638235609 L 56.636917067331694 37.1240638235609" stroke-opacity="0.6980392156862745" stroke-linecap="round" stroke-linejoin="round" stroke-miterlimit="10" stroke-width="2.5"/><path fill="none" stroke="rgb(128,128,128)" paint-order="fill stroke markers" d=" M 56.636917067331694 37.1240638235609 L 56.636917067331694 578.5215333138146" stroke-opacity="0.6980392156862745" stroke-linecap="round" stroke-linejoin="round" stroke-miterlimit="10" stroke-width="2.5"/><path fill="rgb(128,128,128)" stroke="none" paint-order="stroke fill markers" d=" M 61.636917067331694 578.5215333138146 C 61.636917067331694 581.2829570629686 59.39834081648566 583.5215333138146 56.636917067331694 583.5215333138146 C 53.875493318177725 583.5215333138146 51.636917067331694 581.2829570629686 51.636917067331694 578.5215333138146 C 51.636917067331694 575.7601095646606 53.875493318177725 573.5215333138146 56.636917067331694 573.5215333138146 C 59.39834081648566 573.5215333138146 61.636917067331694 575.7601095646606 61.636917067331694 578.5215333138146 Z" fill-opacity="1"/><path fill="none" stroke="rgb(0,0,0)" paint-order="fill stroke markers" d=" M 61.636917067331694 578.5215333138146 C 61.636917067331694 581.2829570629686 59.39834081648566 583.5215333138146 56.636917067331694 583.5215333138146 C 53.875493318177725 583.5215333138146 51.636917067331694 581.2829570629686 51.636917067331694 578.5215333138146 C 51.636917067331694 575.7601095646606 53.875493318177725 573.5215333138146 56.636917067331694 573.5215333138146 C 59.39834081648566 573.5215333138146 61.636917067331694 575.7601095646606 61.636917067331694 578.5215333138146 Z" stroke-opacity="1" stroke-linecap="round" stroke-linejoin="round" stroke-miterlimit="10"/><path fill="rgb(128,128,128)" stroke="none" paint-order="stroke fill markers" d=" M 603.0343865575842 578.5215333138146 C 603.0343865575842 581.2829570629686 600.7958103067382 583.5215333138146 598.0343865575842 583.5215333138146 C 595.2729628084302 583.5215333138146 593.0343865575842 581.2829570629686 593.0343865575842 578.5215333138146 C 593.0343865575842 575.7601095646606 595.2729628084302 573.5215333138146 598.0343865575842 573.5215333138146 C 600.7958103067382 573.5215333138146 603.0343865575842 575.7601095646606 603.0343865575842 578.5215333138146 Z" fill-opacity="1"/><path fill="none" stroke="rgb(0,0,0)" paint-order="fill stroke markers" d=" M 603.0343865575842 578.5215333138146 C 603.0343865575842 581.2829570629686 600.7958103067382 583.5215333138146 598.0343865575842 583.5215333138146 C 595.2729628084302 583.5215333138146 593.0343865575842 581.2829570629686 593.0343865575842 578.5215333138146 C 593.0343865575842 575.7601095646606 595.2729628084302 573.5215333138146 598.0343865575842 573.5215333138146 C 600.7958103067382 573.5215333138146 603.0343865575842 575.7601095646606 603.0343865575842 578.5215333138146 Z" stroke-opacity="1" stroke-linecap="round" stroke-linejoin="round" stroke-miterlimit="10"/><path fill="rgb(128,128,128)" stroke="none" paint-order="stroke fill markers" d=" M 603.0343865575842 37.1240638235609 C 603.0343865575842 39.885487572714865 600.7958103067382 42.1240638235609 598.0343865575842 42.1240638235609 C 595.2729628084302 42.1240638235609 593.0343865575842 39.885487572714865 593.0343865575842 37.1240638235609 C 593.0343865575842 34.36264007440693 595.2729628084302 32.1240638235609 598.0343865575842 32.1240638235609 C 600.7958103067382 32.1240638235609 603.0343865575842 34.36264007440693 603.0343865575842 37.1240638235609 Z" fill-opacity="1"/><path fill="none" stroke="rgb(0,0,0)" paint-order="fill stroke markers" d=" M 603.0343865575842 37.1240638235609 C 603.0343865575842 39.885487572714865 600.7958103067382 42.1240638235609 598.0343865575842 42.1240638235609 C 595.2729628084302 42.1240638235609 593.0343865575842 39.885487572714865 593.0343865575842 37.1240638235609 C 593.0343865575842 34.36264007440693 595.2729628084302 32.1240638235609 598.0343865575842 32.1240638235609 C 600.7958103067382 32.1240638235609 603.0343865575842 34.36264007440693 603.0343865575842 37.1240638235609 Z" stroke-opacity="1" stroke-linecap="round" stroke-linejoin="round" stroke-miterlimit="10"/><path fill="rgb(128,128,128)" stroke="none" paint-order="stroke fill markers" d=" M 61.636917067331694 37.1240638235609 C 61.636917067331694 39.885487572714865 59.39834081648566 42.1240638235609 56.636917067331694 42.1240638235609 C 53.875493318177725 42.1240638235609 51.636917067331694 39.885487572714865 51.636917067331694 37.1240638235609 C 51.636917067331694 34.36264007440693 53.875493318177725 32.1240638235609 56.636917067331694 32.1240638235609 C 59.39834081648566 32.1240638235609 61.636917067331694 34.36264007440693 61.636917067331694 37.1240638235609 Z" fill-opacity="1"/><path fill="none" stroke="rgb(0,0,0)" paint-order="fill stroke markers" d=" M 61.636917067331694 37.1240638235609 C 61.636917067331694 39.885487572714865 59.39834081648566 42.1240638235609 56.636917067331694 42.1240638235609 C 53.875493318177725 42.1240638235609 51.636917067331694 39.885487572714865 51.636917067331694 37.1240638235609 C 51.636917067331694 34.36264007440693 53.875493318177725 32.1240638235609 56.636917067331694 32.1240638235609 C 59.39834081648566 32.1240638235609 61.636917067331694 34.36264007440693 61.636917067331694 37.1240638235609 Z" stroke-opacity="1" stroke-linecap="round" stroke-linejoin="round" stroke-miterlimit="10"/><path fill="rgb(204,0,0)" stroke="none" paint-order="stroke fill markers" d=" M 175.04766443806818 464.1107859430779 C 175.04766443806818 466.31992494240103 173.25680343739134 468.1107859430779 171.04766443806818 468.1107859430779 C 168.838525438745 468.1107859430779 167.04766443806818 466.31992494240103 167.04766443806818 464.1107859430779 C 167.04766443806818 461.9016469437547 168.838525438745 460.1107859430779 171.04766443806818 460.1107859430779 C 173.25680343739134 460.1107859430779 175.04766443806818 461.9016469437547 175.04766443806818 464.1107859430779 Z" fill-opacity="1"/><path fill="none" stroke="rgb(0,0,0)" paint-order="fill stroke markers" d=" M 175.04766443806818 464.1107859430779 C 175.04766443806818 466.31992494240103 173.25680343739134 468.1107859430779 171.04766443806818 468.1107859430779 C 168.838525438745 468.1107859430779 167.04766443806818 466.31992494240103 167.04766443806818 464.1107859430779 C 167.04766443806818 461.9016469437547 168.838525438745 460.1107859430779 171.04766443806818 460.1107859430779 C 173.25680343739134 460.1107859430779 175.04766443806818 461.9016469437547 175.04766443806818 464.1107859430779 Z" stroke-opacity="1" stroke-linecap="round" stroke-linejoin="round" stroke-miterlimit="10"/><path fill="rgb(204,0,0)" stroke="none" paint-order="stroke fill markers" d=" M 175.04766443806818 151.53481119429765 C 175.04766443806818 153.74395019362083 173.25680343739134 155.53481119429765 171.04766443806818 155.53481119429765 C 168.838525438745 155.53481119429765 167.04766443806818 153.74395019362083 167.04766443806818 151.53481119429765 C 167.04766443806818 149.32567219497446 168.838525438745 147.53481119429765 171.04766443806818 147.53481119429765 C 173.25680343739134 147.53481119429765 175.04766443806818 149.32567219497446 175.04766443806818 151.53481119429765 Z" fill-opacity="1"/><path fill="none" stroke="rgb(0,0,0)" paint-order="fill stroke markers" d=" M 175.04766443806818 151.53481119429765 C 175.04766443806818 153.74395019362083 173.25680343739134 155.53481119429765 171.04766443806818 155.53481119429765 C 168.838525438745 155.53481119429765 167.04766443806818 153.74395019362083 167.04766443806818 151.53481119429765 C 167.04766443806818 149.32567219497446 168.838525438745 147.53481119429765 171.04766443806818 147.53481119429765 C 173.25680343739134 147.53481119429765 175.04766443806818 149.32567219497446 175.04766443806818 151.53481119429765 Z" stroke-opacity="1" stroke-linecap="round" stroke-linejoin="round" stroke-miterlimit="10"/><path fill="rgb(204,0,0)" stroke="none" paint-order="stroke fill markers" d=" M 487.62363918684775 464.1107859430779 C 487.62363918684775 466.31992494240103 485.8327781861709 468.1107859430779 483.62363918684775 468.1107859430779 C 481.4145001875246 468.1107859430779 479.62363918684775 466.31992494240103 479.62363918684775 464.1107859430779 C 479.62363918684775 461.9016469437547 481.4145001875246 460.1107859430779 483.62363918684775 460.1107859430779 C 485.8327781861709 460.1107859430779 487.62363918684775 461.9016469437547 487.62363918684775 464.1107859430779 Z" fill-opacity="1"/><path fill="none" stroke="rgb(0,0,0)" paint-order="fill stroke markers" d=" M 487.62363918684775 464.1107859430779 C 487.62363918684775 466.31992494240103 485.8327781861709 468.1107859430779 483.62363918684775 468.1107859430779 C 481.4145001875246 468.1107859430779 479.62363918684775 466.31992494240103 479.62363918684775 464.1107859430779 C 479.62363918684775 461.9016469437547 481.4145001875246 460.1107859430779 483.62363918684775 460.1107859430779 C 485.8327781861709 460.1107859430779 487.62363918684775 461.9016469437547 487.62363918684775 464.1107859430779 Z" stroke-opacity="1" stroke-linecap="round" stroke-linejoin="round" stroke-miterlimit="10"/><path fill="rgb(204,0,0)" stroke="none" paint-order="stroke fill markers" d=" M 487.62363918684775 151.53481119429765 C 487.62363918684775 153.74395019362083 485.8327781861709 155.53481119429765 483.62363918684775 155.53481119429765 C 481.4145001875246 155.53481119429765 479.62363918684775 153.74395019362083 479.62363918684775 151.53481119429765 C 479.62363918684775 149.32567219497446 481.4145001875246 147.53481119429765 483.62363918684775 147.53481119429765 C 485.8327781861709 147.53481119429765 487.62363918684775 149.32567219497446 487.62363918684775 151.53481119429765 Z" fill-opacity="1"/><path fill="none" stroke="rgb(0,0,0)" paint-order="fill stroke markers" d=" M 487.62363918684775 151.53481119429765 C 487.62363918684775 153.74395019362083 485.8327781861709 155.53481119429765 483.62363918684775 155.53481119429765 C 481.4145001875246 155.53481119429765 479.62363918684775 153.74395019362083 479.62363918684775 151.53481119429765 C 479.62363918684775 149.32567219497446 481.4145001875246 147.53481119429765 483.62363918684775 147.53481119429765 C 485.8327781861709 147.53481119429765 487.62363918684775 149.32567219497446 487.62363918684775 151.53481119429765 Z" stroke-opacity="1" stroke-linecap="round" stroke-linejoin="round" stroke-miterlimit="10"/><g transform="scale(19,19)"><g transform="translate(9.578947368421053,24.27557894736842)"><path fill="rgb(255,0,0)" stroke="none" paint-order="stroke fill markers" d=" M 0.294 -0.64 L 0.294 -0.079 Q 0.294 -0.049 0.306 -0.041 Q 0.323 -0.031 0.387 -0.031 L 0.419 -0.031 L 0.419 0 Q 0.384 -0.003 0.257 -0.003 Q 0.13 -0.003 0.095 0 L 0.095 -0.031 L 0.127 -0.031 Q 0.20400000000000001 -0.031 0.215 -0.049 L 0.216 -0.05 Q 0.22 -0.058 0.22 -0.079 L 0.22 -0.597 Q 0.168 -0.5710000000000001 0.089 -0.5710000000000001 L 0.089 -0.602 Q 0.209 -0.602 0.271 -0.666 Q 0.29 -0.666 0.293 -0.659 L 0.293 -0.659 L 0.293 -0.658 Q 0.294 -0.655 0.294 -0.64 Z"/></g></g><g transform="scale(19,19)"><g transform="translate(9.526315789473685,9.117684210526315)"><path fill="rgb(255,0,0)" stroke="none" paint-order="stroke fill markers" d=" M 0.294 -0.64 L 0.294 -0.079 Q 0.294 -0.049 0.306 -0.041 Q 0.323 -0.031 0.387 -0.031 L 0.419 -0.031 L 0.419 0 Q 0.384 -0.003 0.257 -0.003 Q 0.13 -0.003 0.095 0 L 0.095 -0.031 L 0.127 -0.031 Q 0.20400000000000001 -0.031 0.215 -0.049 L 0.216 -0.05 Q 0.22 -0.058 0.22 -0.079 L 0.22 -0.597 Q 0.168 -0.5710000000000001 0.089 -0.5710000000000001 L 0.089 -0.602 Q 0.209 -0.602 0.271 -0.666 Q 0.29 -0.666 0.293 -0.659 L 0.293 -0.659 L 0.293 -0.658 Q 0.294 -0.655 0.294 -0.64 Z"/></g></g><g transform="scale(19,19)"><g transform="translate(24.57894736842105,8.854526315789474)"><path fill="rgb(255,0,0)" stroke="none" paint-order="stroke fill markers" d=" M 0.294 -0.64 L 0.294 -0.079 Q 0.294 -0.049 0.306 -0.041 Q 0.323 -0.031 0.387 -0.031 L 0.419 -0.031 L 0.419 0 Q 0.384 -0.003 0.257 -0.003 Q 0.13 -0.003 0.095 0 L 0.095 -0.031 L 0.127 -0.031 Q 0.20400000000000001 -0.031 0.215 -0.049 L 0.216 -0.05 Q 0.22 -0.058 0.22 -0.079 L 0.22 -0.597 Q 0.168 -0.5710000000000001 0.089 -0.5710000000000001 L 0.089 -0.602 Q 0.209 -0.602 0.271 -0.666 Q 0.29 -0.666 0.293 -0.659 L 0.293 -0.659 L 0.293 -0.658 Q 0.294 -0.655 0.294 -0.64 Z"/></g></g><g transform="scale(19,19)"><g transform="translate(24.736842105263158,24.433473684210526)"><path fill="rgb(255,0,0)" stroke="none" paint-order="stroke fill markers" d=" M 0.294 -0.64 L 0.294 -0.079 Q 0.294 -0.049 0.306 -0.041 Q 0.323 -0.031 0.387 -0.031 L 0.419 -0.031 L 0.419 0 Q 0.384 -0.003 0.257 -0.003 Q 0.13 -0.003 0.095 0 L 0.095 -0.031 L 0.127 -0.031 Q 0.20400000000000001 -0.031 0.215 -0.049 L 0.216 -0.05 Q 0.22 -0.058 0.22 -0.079 L 0.22 -0.597 Q 0.168 -0.5710000000000001 0.089 -0.5710000000000001 L 0.089 -0.602 Q 0.209 -0.602 0.271 -0.666 Q 0.29 -0.666 0.293 -0.659 L 0.293 -0.659 L 0.293 -0.658 Q 0.294 -0.655 0.294 -0.64 Z"/></g></g></g></g></svg>