<svg version="1.1" xmlns="http://www.w3.org/2000/svg" xmlns:xlink="http://www.w3.org/1999/xlink" width="624" height="621"><defs><clipPath id="bVTQGEFARdbE"><path fill="none" stroke="none" d=" M 0 0 L 624 0 L 624 621 L 0 621 L 0 0 Z"/></clipPath></defs><g transform="scale(1,1)" clip-path="url(#bVTQGEFARdbE)"><g><rect fill="rgb(255,255,255)" stroke="none" x="0" y="0" width="624" height="621" fill-opacity="1"/><path fill="none" stroke="rgb(0,0,0)" paint-order="fill stroke markers" d=" M 44.5 2.5 L 44.5 621.5" stroke-opacity="1" stroke-miterlimit="10"/><path fill="none" stroke="rgb(0,0,0)" paint-order="fill stroke markers" d=" M 44.5 1.5 L 40.5 5.5" stroke-opacity="1" stroke-miterlimit="10"/><path fill="none" stroke="rgb(0,0,0)" paint-order="fill stroke markers" d=" M 44.5 1.5 L 48.5 5.5" stroke-opacity="1" stroke-miterlimit="10"/><path fill="none" stroke="rgb(0,0,0)" paint-order="fill stroke markers" d=" M 0.5 579.5 L 622.5 579.5" stroke-opacity="1" stroke-miterlimit="10"/><path fill="none" stroke="rgb(0,0,0)" paint-order="fill stroke markers" d=" M 623.5 579.5 L 619.5 575.5" stroke-opacity="1" stroke-miterlimit="10"/><path fill="none" stroke="rgb(0,0,0)" paint-order="fill stroke markers" d=" M 623.5 579.5 L 619.5 583.5" stroke-opacity="1" stroke-miterlimit="10"/><path fill="none" stroke="rgb(0,0,0)" paint-order="fill stroke markers" d=" M 44.5 579.5 L 44.5 582.5" stroke-opacity="1" stroke-miterlimit="10"/><text fill="rgb(0,0,0)" stroke="none" font-family="geogebra-sans-serif, sans-serif" font-size="12px" font-style="normal" font-weight="normal" text-decoration="normal" x="203" y="595" text-anchor="start" dominant-baseline="alphabetic" fill-opacity="1">1 / 3</text><text fill="none" stroke="rgb(255,255,255)" font-family="geogebra-sans-serif, sans-serif" font-size="12px" font-style="normal" font-weight="normal" text-decoration="normal" x="203" y="595" text-anchor="start" dominant-baseline="alphabetic" stroke-opacity="1" stroke-linejoin="bevel" stroke-miterlimit="10" stroke-width="3">1 / 3</text><text fill="rgb(0,0,0)" stroke="none" font-family="geogebra-sans-serif, sans-serif" font-size="12px" font-style="normal" font-weight="normal" text-decoration="normal" x="203" y="595" text-anchor="start" dominant-baseline="alphabetic" fill-opacity="1">1 / 3</text><path fill="none" stroke="rgb(0,0,0)" paint-order="fill stroke markers" d=" M 217.5 579.5 L 217.5 582.5" stroke-opacity="1" stroke-miterlimit="10"/><text fill="rgb(0,0,0)" stroke="none" font-family="geogebra-sans-serif, sans-serif" font-size="12px" font-style="normal" font-weight="normal" text-decoration="normal" x="377" y="595" text-anchor="start" dominant-baseline="alphabetic" fill-opacity="1">2 / 3</text><text fill="none" stroke="rgb(255,255,255)" font-family="geogebra-sans-serif, sans-serif" font-size="12px" font-style="normal" font-weight="normal" text-decoration="normal" x="377" y="595" text-anchor="start" dominant-baseline="alphabetic" stroke-opacity="1" stroke-linejoin="bevel" stroke-miterlimit="10" stroke-width="3">2 / 3</text><text fill="rgb(0,0,0)" stroke="none" font-family="geogebra-sans-serif, sans-serif" font-size="12px" font-style="normal" font-weight="normal" text-decoration="normal" x="377" y="595" text-anchor="start" dominant-baseline="alphabetic" fill-opacity="1">2 / 3</text><path fill="none" stroke="rgb(0,0,0)" paint-order="fill stroke markers" d=" M 391.5 579.5 L 391.5 582.5" stroke-opacity="1" stroke-miterlimit="10"/><text fill="rgb(0,0,0)" stroke="none" font-family="geogebra-sans-serif, sans-serif" font-size="12px" font-style="normal" font-weight="normal" text-decoration="normal" x="562" y="595" text-anchor="start" dominant-baseline="alphabetic" fill-opacity="1">1</text><text fill="none" stroke="rgb(255,255,255)" font-family="geogebra-sans-serif, sans-serif" font-size="12px" font-style="normal" font-weight="normal" text-decoration="normal" x="562" y="595" text-anchor="start" dominant-baseline="alphabetic" stroke-opacity="1" stroke-linejoin="bevel" stroke-miterlimit="10" stroke-width="3">1</text><text fill="rgb(0,0,0)" stroke="none" font-family="geogebra-sans-serif, sans-serif" font-size="12px" font-style="normal" font-weight="normal" text-decoration="normal" x="562" y="595" text-anchor="start" dominant-baseline="alphabetic" fill-opacity="1">1</text><path fill="none" stroke="rgb(0,0,0)" paint-order="fill stroke markers" d=" M 564.5 579.5 L 564.5 582.5" stroke-opacity="1" stroke-miterlimit="10"/><path fill="none" stroke="rgb(0,0,0)" paint-order="fill stroke markers" d=" M 41.5 406.5 L 44.5 406.5" stroke-opacity="1" stroke-miterlimit="10"/><path fill="none" stroke="rgb(0,0,0)" paint-order="fill stroke markers" d=" M 41.5 232.5 L 44.5 232.5" stroke-opacity="1" stroke-miterlimit="10"/><path fill="none" stroke="rgb(0,0,0)" paint-order="fill stroke markers" d=" M 41.5 59.5 L 44.5 59.5" stroke-opacity="1" stroke-miterlimit="10"/><text fill="rgb(0,0,0)" stroke="none" font-family="geogebra-sans-serif, sans-serif" font-size="12px" font-style="normal" font-weight="normal" text-decoration="normal" x="14" y="411" text-anchor="start" dominant-baseline="alphabetic" fill-opacity="1">1 / 3</text><text fill="none" stroke="rgb(255,255,255)" font-family="geogebra-sans-serif, sans-serif" font-size="12px" font-style="normal" font-weight="normal" text-decoration="normal" x="14" y="411" text-anchor="start" dominant-baseline="alphabetic" stroke-opacity="1" stroke-linejoin="bevel" stroke-miterlimit="10" stroke-width="3">1 / 3</text><text fill="rgb(0,0,0)" stroke="none" font-family="geogebra-sans-serif, sans-serif" font-size="12px" font-style="normal" font-weight="normal" text-decoration="normal" x="14" y="411" text-anchor="start" dominant-baseline="alphabetic" fill-opacity="1">1 / 3</text><text fill="rgb(0,0,0)" stroke="none" font-family="geogebra-sans-serif, sans-serif" font-size="12px" font-style="normal" font-weight="normal" text-decoration="normal" x="14" y="237" text-anchor="start" dominant-baseline="alphabetic" fill-opacity="1">2 / 3</text><text fill="none" stroke="rgb(255,255,255)" font-family="geogebra-sans-serif, sans-serif" font-size="12px" font-style="normal" font-weight="normal" text-decoration="normal" x="14" y="237" text-anchor="start" dominant-baseline="alphabetic" stroke-opacity="1" stroke-linejoin="bevel" stroke-miterlimit="10" stroke-width="3">2 / 3</text><text fill="rgb(0,0,0)" stroke="none" font-family="geogebra-sans-serif, sans-serif" font-size="12px" font-style="normal" font-weight="normal" text-decoration="normal" x="14" y="237" text-anchor="start" dominant-baseline="alphabetic" fill-opacity="1">2 / 3</text><text fill="rgb(0,0,0)" stroke="none" font-family="geogebra-sans-serif, sans-serif" font-size="12px" font-style="normal" font-weight="normal" text-decoration="normal" x="30" y="64" text-anchor="start" dominant-baseline="alphabetic" fill-opacity="1">1</text><text fill="none" stroke="rgb(255,255,255)" font-family="geogebra-sans-serif, sans-serif" font-size="12px" font-style="normal" font-weight="normal" text-decoration="normal" x="30" y="64" text-anchor="start" dominant-baseline="alphabetic" stroke-opacity="1" stroke-linejoin="bevel" stroke-miterlimit="10" stroke-width="3">1</text><text fill="rgb(0,0,0)" stroke="none" font-family="geogebra-sans-serif, sans-serif" font-size="12px" font-style="normal" font-weight="normal" text-decoration="normal" x="30" y="64" text-anchor="start" dominant-baseline="alphabetic" fill-opacity="1">1</text><text fill="rgb(0,0,0)" stroke="none" font-family="geogebra-sans-serif, sans-serif" font-size="12px" font-style="normal" font-weight="normal" text-decoration="normal" x="30" y="595" text-anchor="start" dominant-baseline="alphabetic" fill-opacity="1">0</text><text fill="none" stroke="rgb(255,255,255)" font-family="geogebra-sans-serif, sans-serif" font-size="12px" font-style="normal" font-weight="normal" text-decoration="normal" x="30" y="595" text-anchor="start" dominant-baseline="alphabetic" stroke-opacity="1" stroke-linejoin="bevel" stroke-miterlimit="10" stroke-width="3">0</text><text fill="rgb(0,0,0)" stroke="none" font-family="geogebra-sans-serif, sans-serif" font-size="12px" font-style="normal" font-weight="normal" text-decoration="normal" x="30" y="595" text-anchor="start" dominant-baseline="alphabetic" fill-opacity="1">0</text><path fill="rgb(128,128,128)" stroke="none" paint-order="stroke fill markers" fill-rule="evenodd" d=" M 44.83231093241966 579.2093133114196 L 564.2036974164395 579.2093133114196 L 44.83231093241966 59.83792682739545 Z" fill-opacity="0.09803921568627451"/><path fill="none" stroke="rgb(128,128,128)" paint-order="fill stroke markers" d=" M 44.83231093241966 579.2093133114196 L 564.2036974164395 579.2093133114196" stroke-opacity="0.6980392156862745" stroke-linecap="round" stroke-linejoin="round" stroke-miterlimit="10" stroke-width="2.5"/><path fill="none" stroke="rgb(128,128,128)" paint-order="fill stroke markers" d=" M 564.2036974164395 579.2093133114196 L 44.83231093241966 59.83792682739545" stroke-opacity="0.6980392156862745" stroke-linecap="round" stroke-linejoin="round" stroke-miterlimit="10" stroke-width="2.5"/><path fill="none" stroke="rgb(128,128,128)" paint-order="fill stroke markers" d=" M 44.83231093241966 59.83792682739545 L 44.83231093241966 579.2093133114196" stroke-opacity="0.6980392156862745" stroke-linecap="round" stroke-linejoin="round" stroke-miterlimit="10" stroke-width="2.5"/><path fill="none" stroke="rgb(128,128,128)" paint-order="fill stroke markers" d=" M 44.83231093241966 406.08551781674487 L 217.95610642709292 406.08551781674487" stroke-opacity="0.6980392156862745" stroke-linejoin="round" stroke-miterlimit="10" stroke-width="2.5" stroke-dasharray="2.5,3"/><path fill="none" stroke="rgb(128,128,128)" paint-order="fill stroke markers" d=" M 217.95610642709292 579.2093133114196 L 217.95610642709292 406.08551781674487" stroke-opacity="0.6980392156862745" stroke-linejoin="round" stroke-miterlimit="10" stroke-width="2.5" stroke-dasharray="2.5,3"/><path fill="rgb(128,128,128)" stroke="none" paint-order="stroke fill markers" d=" M 48.83231093241966 579.2093133114196 C 48.83231093241966 581.4184523107427 47.04144993174283 583.2093133114196 44.83231093241966 583.2093133114196 C 42.623171933096486 583.2093133114196 40.83231093241966 581.4184523107427 40.83231093241966 579.2093133114196 C 40.83231093241966 577.0001743120964 42.623171933096486 575.2093133114196 44.83231093241966 575.2093133114196 C 47.04144993174283 575.2093133114196 48.83231093241966 577.0001743120964 48.83231093241966 579.2093133114196 Z" fill-opacity="1"/><path fill="none" stroke="rgb(0,0,0)" paint-order="fill stroke markers" d=" M 48.83231093241966 579.2093133114196 C 48.83231093241966 581.4184523107427 47.04144993174283 583.2093133114196 44.83231093241966 583.2093133114196 C 42.623171933096486 583.2093133114196 40.83231093241966 581.4184523107427 40.83231093241966 579.2093133114196 C 40.83231093241966 577.0001743120964 42.623171933096486 575.2093133114196 44.83231093241966 575.2093133114196 C 47.04144993174283 575.2093133114196 48.83231093241966 577.0001743120964 48.83231093241966 579.2093133114196 Z" stroke-opacity="1" stroke-linecap="round" stroke-linejoin="round" stroke-miterlimit="10"/><path fill="rgb(128,128,128)" stroke="none" paint-order="stroke fill markers" d=" M 568.2036974164395 579.2093133114196 C 568.2036974164395 581.4184523107427 566.4128364157626 583.2093133114196 564.2036974164395 583.2093133114196 C 561.9945584171163 583.2093133114196 560.2036974164395 581.4184523107427 560.2036974164395 579.2093133114196 C 560.2036974164395 577.0001743120964 561.9945584171163 575.2093133114196 564.2036974164395 575.2093133114196 C 566.4128364157626 575.2093133114196 568.2036974164395 577.0001743120964 568.2036974164395 579.2093133114196 Z" fill-opacity="1"/><path fill="none" stroke="rgb(0,0,0)" paint-order="fill stroke markers" d=" M 568.2036974164395 579.2093133114196 C 568.2036974164395 581.4184523107427 566.4128364157626 583.2093133114196 564.2036974164395 583.2093133114196 C 561.9945584171163 583.2093133114196 560.2036974164395 581.4184523107427 560.2036974164395 579.2093133114196 C 560.2036974164395 577.0001743120964 561.9945584171163 575.2093133114196 564.2036974164395 575.2093133114196 C 566.4128364157626 575.2093133114196 568.2036974164395 577.0001743120964 568.2036974164395 579.2093133114196 Z" stroke-opacity="1" stroke-linecap="round" stroke-linejoin="round" stroke-miterlimit="10"/><path fill="rgb(128,128,128)" stroke="none" paint-order="stroke fill markers" d=" M 48.83231093241966 59.83792682739545 C 48.83231093241966 62.04706582671862 47.04144993174283 63.83792682739545 44.83231093241966 63.83792682739545 C 42.623171933096486 63.83792682739545 40.83231093241966 62.04706582671862 40.83231093241966 59.83792682739545 C 40.83231093241966 57.62878782807228 42.623171933096486 55.83792682739545 44.83231093241966 55.83792682739545 C 47.04144993174283 55.83792682739545 48.83231093241966 57.62878782807228 48.83231093241966 59.83792682739545 Z" fill-opacity="1"/><path fill="none" stroke="rgb(0,0,0)" paint-order="fill stroke markers" d=" M 48.83231093241966 59.83792682739545 C 48.83231093241966 62.04706582671862 47.04144993174283 63.83792682739545 44.83231093241966 63.83792682739545 C 42.623171933096486 63.83792682739545 40.83231093241966 62.04706582671862 40.83231093241966 59.83792682739545 C 40.83231093241966 57.62878782807228 42.623171933096486 55.83792682739545 44.83231093241966 55.83792682739545 C 47.04144993174283 55.83792682739545 48.83231093241966 57.62878782807228 48.83231093241966 59.83792682739545 Z" stroke-opacity="1" stroke-linecap="round" stroke-linejoin="round" stroke-miterlimit="10"/><path fill="rgb(255,0,0)" stroke="none" paint-order="stroke fill markers" d=" M 222.95610642709292 406.08551781674487 C 222.95610642709292 408.8469415658988 220.7175301762469 411.08551781674487 217.95610642709292 411.08551781674487 C 215.19468267793894 411.08551781674487 212.95610642709292 408.8469415658988 212.95610642709292 406.08551781674487 C 212.95610642709292 403.3240940675909 215.19468267793894 401.08551781674487 217.95610642709292 401.08551781674487 C 220.7175301762469 401.08551781674487 222.95610642709292 403.3240940675909 222.95610642709292 406.08551781674487 Z" fill-opacity="1"/><path fill="none" stroke="rgb(0,0,0)" paint-order="fill stroke markers" d=" M 222.95610642709292 406.08551781674487 C 222.95610642709292 408.8469415658988 220.7175301762469 411.08551781674487 217.95610642709292 411.08551781674487 C 215.19468267793894 411.08551781674487 212.95610642709292 408.8469415658988 212.95610642709292 406.08551781674487 C 212.95610642709292 403.3240940675909 215.19468267793894 401.08551781674487 217.95610642709292 401.08551781674487 C 220.7175301762469 401.08551781674487 222.95610642709292 403.3240940675909 222.95610642709292 406.08551781674487 Z" stroke-opacity="1" stroke-linecap="round" stroke-linejoin="round" stroke-miterlimit="10"/><g transform="scale(19,19)"><g transform="translate(12.431342990098948,20.801894736842105)"><path fill="rgb(255,0,0)" stroke="none" paint-order="stroke fill markers" d=" M 0.294 -0.64 L 0.294 -0.079 Q 0.294 -0.049 0.306 -0.041 Q 0.323 -0.031 0.387 -0.031 L 0.419 -0.031 L 0.419 0 Q 0.384 -0.003 0.257 -0.003 Q 0.13 -0.003 0.095 0 L 0.095 -0.031 L 0.127 -0.031 Q 0.20400000000000001 -0.031 0.215 -0.049 L 0.216 -0.05 Q 0.22 -0.058 0.22 -0.079 L 0.22 -0.597 Q 0.168 -0.5710000000000001 0.089 -0.5710000000000001 L 0.089 -0.602 Q 0.209 -0.602 0.271 -0.666 Q 0.29 -0.666 0.293 -0.659 L 0.293 -0.659 L 0.293 -0.658 Q 0.294 -0.655 0.294 -0.64 Z"/></g><rect fill="rgb(255,0,0)" stroke="none" x="12.431342990098948" y="21.208403236842106" width="0.5" height="0.039999"/><g transform="translate(12.431342990098948,22.164353736842106)"><path fill="rgb(255,0,0)" stroke="none" paint-order="stroke fill markers" d=" M 0.449 -0.17400000000000002 L 0.449 -0.17400000000000002 L 0.421 0 L 0.05 0 Q 0.05 -0.025 0.056 -0.032 L 0.061 -0.037 L 0.253 -0.251 Q 0.358 -0.369 0.358 -0.47200000000000003 Q 0.358 -0.561 0.304 -0.607 L 0.303 -0.608 L 0.302 -0.608 Q 0.27 -0.635 0.224 -0.635 Q 0.152 -0.635 0.109 -0.5730000000000001 Q 0.097 -0.555 0.089 -0.533 Q 0.092 -0.534 0.10200000000000001 -0.534 Q 0.14200000000000002 -0.534 0.153 -0.498 L 0.153 -0.497 Q 0.155 -0.49 0.155 -0.482 Q 0.155 -0.442 0.117 -0.431 Q 0.109 -0.429 0.10300000000000001 -0.429 Q 0.066 -0.429 0.054 -0.46 Q 0.05 -0.47100000000000003 0.05 -0.485 Q 0.05 -0.562 0.109 -0.617 Q 0.162 -0.666 0.23700000000000002 -0.666 Q 0.34700000000000003 -0.666 0.40800000000000003 -0.592 Q 0.443 -0.549 0.448 -0.49 Q 0.449 -0.481 0.449 -0.47200000000000003 Q 0.449 -0.399 0.394 -0.333 Q 0.365 -0.299 0.304 -0.243 L 0.243 -0.189 L 0.233 -0.18 L 0.127 -0.077 L 0.307 -0.077 Q 0.395 -0.077 0.402 -0.085 Q 0.41200000000000003 -0.099 0.424 -0.17400000000000002 L 0.449 -0.17400000000000002 Z"/></g></g></g></g></svg>